<?xml version="1.0" encoding="UTF-8" standalone="no"?>
<!-- Created with Inkscape (http://www.inkscape.org/) -->

<svg
   xmlns:dc="http://purl.org/dc/elements/1.1/"
   xmlns:cc="http://creativecommons.org/ns#"
   xmlns:rdf="http://www.w3.org/1999/02/22-rdf-syntax-ns#"
   xmlns:svg="http://www.w3.org/2000/svg"
   xmlns="http://www.w3.org/2000/svg"
   xmlns:sodipodi="http://sodipodi.sourceforge.net/DTD/sodipodi-0.dtd"
   xmlns:inkscape="http://www.inkscape.org/namespaces/inkscape"
   width="212.28223mm"
   height="185.28223mm"
   viewBox="0 0 752.18111 656.51182"
   id="svg2"
   version="1.1"
   inkscape:version="0.91 r13725"
   sodipodi:docname="kano-yappi.svg">
  <sodipodi:namedview
     id="base"
     pagecolor="#ffffff"
     bordercolor="#666666"
     borderopacity="1.0"
     inkscape:pageopacity="0.0"
     inkscape:pageshadow="2"
     inkscape:zoom="0.98994949"
     inkscape:cx="527.04962"
     inkscape:cy="271.34364"
     inkscape:document-units="px"
     inkscape:current-layer="layer1"
     showgrid="false"
     inkscape:window-width="1920"
     inkscape:window-height="1032"
     inkscape:window-x="0"
     inkscape:window-y="25"
     inkscape:window-maximized="1"
     fit-margin-top="15"
     fit-margin-right="15"
     fit-margin-bottom="15"
     fit-margin-left="15" />
  <defs
     id="defs4" />
  <metadata
     id="metadata7">
    <rdf:RDF>
      <cc:Work
         rdf:about="">
        <dc:format>image/svg+xml</dc:format>
        <dc:type
           rdf:resource="http://purl.org/dc/dcmitype/StillImage" />
        <dc:title></dc:title>
      </cc:Work>
    </rdf:RDF>
  </metadata>
  <g
     transform="translate(18.216535,-290.05118)"
     id="layer1"
     inkscape:groupmode="layer"
     inkscape:label="Layer 1" />
  <g
     id="g5941"
     inkscape:groupmode="layer"
     inkscape:label="Basic Shape"
     transform="translate(18.216535,18.216535)">
    <path
       id="path5943"
       style="fill:#ffffff;stroke:#333333;stroke-width:1;stroke-linejoin:round;stroke-dasharray:none"
       d="m 35.433071,425.19685 159.448819,159.44882 127.55905,0 124.01575,-124.01575 35.43307,35.43307 127.55906,0 70.86614,-70.86614 0,-230.31496 -70.86614,-70.86614 -127.55906,0 -35.43307,35.43307 -124.01575,-124.015749 -127.55905,0 -159.448819,159.448819 0,230.31496"
       inkscape:connector-curvature="0" />
    <path
       id="path5945"
       style="fill:#ffffff;stroke:#333333;stroke-width:1;stroke-linejoin:round;stroke-dasharray:none"
       d="m 237.40157,460.62992 42.51969,0 0,-10.62992 -42.51969,0 0,10.62992"
       inkscape:connector-curvature="0" />
  </g>
  <g
     id="g5947"
     inkscape:groupmode="layer"
     inkscape:label="Left Side"
     transform="matrix(0,-1,1,0,-176.66535,443.41339)">
    <g
       id="g5949"
       inkscape:groupmode="layer"
       inkscape:label="Footer">
      <g
         id="g5951"
         inkscape:groupmode="layer"
         inkscape:label="Headline Layer">
        <rect
           id="rect5953"
           y="265.74802"
           x="-35.433071"
           width="301.18109"
           style="fill:#f88028;stroke:none"
           height="88.58268" />
        <text
           id="text5955"
           style="font-weight:bold;font-size:17.71653557px;fill:#ffffff"
           x="-17.716536"
           y="318.89764">Home of my Kano</text>
      </g>
      <g
         id="g5957"
         inkscape:groupmode="layer"
         inkscape:label="Headline Layer">
        <rect
           id="rect5959"
           y="336.61417"
           x="-35.433071"
           width="301.18109"
           style="fill:#f8a868;stroke:none"
           height="17.716536" />
        <text
           id="text5961"
           style="font-weight:normal;font-size:10.62992096px;fill:#ffffff"
           x="-24.80315"
           y="350.78741">Yet an Awesome Paper Pi</text>
      </g>
      <g
         id="g5963"
         inkscape:groupmode="layer"
         inkscape:label="Logo Layer"
         transform="matrix(1.476378,0,0,1.476378,172.73622,270.17717)">
        <svg
           sodipodi:docname="kano_1.svg"
           viewBox="0 0 54 54"
           height="54"
           width="54"
           inkscape:version="0.91 r13725"
           version="1.1"
           id="svg5965">
          <metadata
             id="metadata8">
            <rdf:RDF>
              <cc:Work
                 rdf:about="">
                <dc:format>image/svg+xml</dc:format>
                <dc:type
                   rdf:resource="http://purl.org/dc/dcmitype/StillImage" />
                <dc:title />
              </cc:Work>
            </rdf:RDF>
          </metadata>
          <defs
             id="defs6" />
          <sodipodi:namedview
             inkscape:current-layer="svg2"
             inkscape:window-maximized="0"
             inkscape:window-y="25"
             inkscape:window-x="0"
             inkscape:cy="26.885593"
             inkscape:cx="27"
             inkscape:zoom="4.3703704"
             showgrid="false"
             id="namedview4"
             inkscape:window-height="480"
             inkscape:window-width="705"
             inkscape:pageshadow="2"
             inkscape:pageopacity="0"
             guidetolerance="10"
             gridtolerance="10"
             objecttolerance="10"
             borderopacity="1"
             bordercolor="#666666"
             pagecolor="#ffffff" />
          <ellipse
             ry="23.855614"
             rx="23.626799"
             cy="27.000002"
             cx="26.771187"
             id="path6343"
             style="fill:#ffffff;fill-opacity:1;stroke:none;stroke-width:7.3396225;stroke-linecap:butt;stroke-linejoin:round;stroke-miterlimit:4;stroke-dasharray:none;stroke-dashoffset:0;stroke-opacity:1" />
          <path
             style="fill:#a0e0f2"
             d="M 17.909795,51.918434 C 8.0579362,48.23017 1.5196326,38.569644 1.5452902,27.739421 1.5531219,24.433587 2.1124189,19.866677 2.7881724,17.590733 4.1357988,13.051913 10.131664,6.246328 15.001505,3.7280356 18.944779,1.6888895 26.511991,0.77858562 32.302028,1.6468553 c 7.391569,1.1084341 16.918821,8.6718597 17.870897,14.1872157 0.179891,1.042109 0.745774,2.196484 1.257517,2.565279 0.511743,0.368795 1.115425,3.293795 1.341515,6.5 0.74242,10.528345 -5.0968,21.33227 -14.037806,25.973228 -4.249253,2.205636 -16.132292,2.802435 -20.824356,1.045856 z M 29.5,37.228814 c 0.368524,-0.596285 -0.842621,-1 -3,-1 -2.157379,0 -3.368524,0.403715 -3,1 0.339919,0.55 1.689919,1 3,1 1.310081,0 2.660081,-0.45 3,-1 z m -11.5,-9 c 0,-4.666667 -0.166667,-5 -2.5,-5 -2.333333,0 -2.5,0.333333 -2.5,5 0,4.666667 0.166667,5 2.5,5 2.333333,0 2.5,-0.333333 2.5,-5 z m 20.480948,2.5 c 0.285479,-1.375 0.739669,-3.573378 1.009312,-4.885285 0.397257,-1.93279 0.01332,-2.476457 -2.023867,-2.86589 -2.999495,-0.57339 -3.024667,-0.537885 -3.900251,5.501175 -0.667177,4.601637 -0.609283,4.75 1.853533,4.75 1.906622,0 2.671993,-0.625043 3.061273,-2.5 z m 5.952964,-10.606933 c -0.474018,-0.766976 0.352426,-0.919837 2.690983,-0.49773 3.054283,0.551295 3.157306,0.497655 1.083825,-0.564301 -1.260204,-0.645427 -2.061827,-1.771449 -1.781385,-2.50227 0.280443,-0.730821 0.14625,-1.328766 -0.298205,-1.328766 -1.090034,0 -3.150644,4.645152 -2.395566,5.40023 0.993093,0.993094 1.431394,0.675694 0.700348,-0.507163 z"
             id="path4152"
             inkscape:connector-curvature="0" />
          <path
             style="fill:#64c9e4"
             d="M 17,51.152138 C 6.2621374,46.301602 1.2546681,37.056413 2.3227493,24.053827 2.9488054,16.432358 4.4331776,13.065599 9.1646808,8.5353913 c 10.0675162,-9.6392068 25.6031222,-9.6392068 35.6706382,0 1.834426,1.7563827 3.980517,4.4251897 4.769092,5.9306827 l 1.433773,2.73726 -2.628639,-1.197688 c -2.262829,-1.031014 -2.822139,-0.933061 -4.019092,0.70387 -2.040088,2.789987 -1.719491,4.057473 1.359547,5.37499 l 2.75,1.176722 -2.360784,-2.016207 c -2.543145,-2.171951 -2.152706,-2.628978 0.865837,-1.013503 1.176722,0.629763 2.092528,0.648424 2.462267,0.05017 0.323783,-0.523892 -0.362448,-1.461569 -1.524958,-2.083725 -1.16251,-0.622156 -1.852873,-1.391976 -1.534139,-1.710709 0.318733,-0.318734 1.482274,0.23747 2.585646,1.236008 1.103372,0.998538 2.037759,1.408279 2.076416,0.910536 0.196124,-2.52528 1.798832,3.65704 1.85943,7.172604 0.08675,5.032975 -4.189335,15.932123 -7.767744,19.798886 C 38.534391,52.766935 26.027896,55.230243 17,51.152138 Z M 30,37.228814 c 0,-0.55 -1.575,-1 -3.5,-1 -1.925,0 -3.5,0.45 -3.5,1 0,0.55 1.575,1 3.5,1 1.925,0 3.5,-0.45 3.5,-1 z m -11.19774,-9.25 c -0.279388,-4.852731 -0.491436,-5.25 -2.80226,-5.25 -2.310824,0 -2.522872,0.397269 -2.80226,5.25 l -0.302259,5.25 3.104519,0 3.104519,0 -0.302259,-5.25 z m 19.651212,4 c 0.214886,-0.6875 0.660814,-2.882387 0.990952,-4.877527 0.524998,-3.172755 0.317536,-3.701459 -1.65484,-4.217247 -2.953889,-0.772459 -3.489796,-0.07855 -4.320861,5.594774 -0.680399,4.644789 -0.637226,4.75 1.949118,4.75 1.454711,0 2.820744,-0.5625 3.035631,-1.25 z"
             id="path4150"
             inkscape:connector-curvature="0" />
          <path
             style="fill:#989899"
             d="M 16.5,50.875965 C 13.75,49.592643 9.87806,46.74331 7.8956889,44.544113 4.3194341,40.576698 4.285828,40.455449 3.5784026,28.967651 2.7799097,16.00102 3.2808085,14.168942 9.1646808,8.5353913 c 10.0675162,-9.6392068 25.6031222,-9.6392068 35.6706382,0 1.834426,1.7563827 3.980517,4.4251897 4.769092,5.9306827 l 1.433773,2.73726 -2.628639,-1.197688 c -2.262829,-1.031014 -2.822139,-0.933061 -4.019092,0.70387 -2.040088,2.789987 -1.719491,4.057473 1.359547,5.37499 l 2.75,1.176722 -2.360784,-2.016207 c -2.543145,-2.171951 -2.152706,-2.628978 0.865837,-1.013503 1.176722,0.629763 2.092528,0.648424 2.462267,0.05017 0.323783,-0.523892 -0.362448,-1.461569 -1.524958,-2.083725 -1.16251,-0.622156 -1.852873,-1.391976 -1.534139,-1.710709 0.318733,-0.318734 1.482274,0.23747 2.585646,1.236008 1.103372,0.998538 2.037759,1.408279 2.076416,0.910536 0.219664,-2.828372 1.800547,3.871356 1.85943,7.880196 0.06586,4.483831 -0.05567,4.717779 -1.929715,3.71482 -1.896714,-1.015091 -2,-0.76049 -2,4.93002 0,5.340947 -0.356374,6.406275 -3.242721,9.693643 C 38.657057,52.939183 26.350552,55.472846 16.5,50.875965 Z M 30,37.228814 c 0,-0.55 -1.575,-1 -3.5,-1 -1.925,0 -3.5,0.45 -3.5,1 0,0.55 1.575,1 3.5,1 1.925,0 3.5,-0.45 3.5,-1 z m -11.19774,-9.25 c -0.279388,-4.852731 -0.491436,-5.25 -2.80226,-5.25 -2.310824,0 -2.522872,0.397269 -2.80226,5.25 l -0.302259,5.25 3.104519,0 3.104519,0 -0.302259,-5.25 z m 19.651212,4 c 0.214886,-0.6875 0.660814,-2.882387 0.990952,-4.877527 0.524998,-3.172755 0.317536,-3.701459 -1.65484,-4.217247 -2.953889,-0.772459 -3.489796,-0.07855 -4.320861,5.594774 -0.680399,4.644789 -0.637226,4.75 1.949118,4.75 1.454711,0 2.820744,-0.5625 3.035631,-1.25 z"
             id="path4148"
             inkscape:connector-curvature="0" />
          <path
             style="fill:#6e6f71"
             d="M 19.881126,51.897506 C 14.529891,50.399575 7.5760526,45.243457 5.5045317,41.237577 4.5677507,39.426043 3.9704106,34.505063 3.7846335,27.068792 L 3.5,15.675502 6.7920856,11.505116 C 14.140271,2.1964984 27.466057,-0.71339316 38.353297,4.6132371 45.617274,8.16717 52.842705,16.583217 47.051994,14.745316 c -1.474793,-0.468081 -2.325019,0.110789 -3.5,2.382953 -1.997924,3.863559 -2.063076,3.646207 1.540365,5.138801 3.138308,1.29993 3.946576,0.909484 5.25448,-2.538256 0.748258,-1.972468 1.726122,0.320422 2.337239,5.480343 0.586616,4.95306 0.506318,5.214862 -1.41266,4.605802 -1.878091,-0.596083 -2.066461,-0.145866 -2.44836,5.851738 -0.475859,7.473223 -2.047072,9.733378 -9.638927,13.865383 -5.831574,3.173941 -13.192331,4.075942 -19.303005,2.365426 z M 29.55887,37.760617 c 1.790131,-1.353986 1.552183,-1.468196 -3.05887,-1.468196 -4.611053,0 -4.849001,0.11421 -3.05887,1.468196 1.067621,0.807509 2.444113,1.468197 3.05887,1.468197 0.614757,0 1.991249,-0.660688 3.05887,-1.468197 z m -10.758966,-9.781803 0.299904,-5.75 -3.049904,0 C 13.03127,22.228814 13,22.283496 13,27.562147 c 0,5.95031 0.499212,6.88251 3.458849,6.45885 1.742254,-0.249397 2.085068,-1.134188 2.341055,-6.042183 z m 20.495253,1.409309 c 1.070732,-5.414321 0.425526,-7.159309 -2.647141,-7.159309 -1.658862,0 -2.603503,0.704318 -3.01773,2.25 -1.01958,3.804551 -0.695962,8.556228 0.619714,9.099228 2.818926,1.163415 4.215923,0.0032 5.045157,-4.189919 z"
             id="path4146"
             inkscape:connector-curvature="0" />
          <path
             style="fill:#be3d48"
             d="M 17.5,50.837313 C 15.85,50.115043 12.28348,47.513349 9.5744002,45.05577 L 4.6488003,40.587444 3.9479088,29.658129 C 3.5624185,23.647006 3.6245943,17.731323 4.0860772,16.512166 5.3972007,13.048411 10.072578,8.2786512 15,5.3779226 18.78807,3.1479205 20.68655,2.7288139 27,2.7288139 c 6.326703,0 8.203978,0.4162522 12,2.6607863 4.66159,2.7563324 11.121504,8.8392138 9.387091,8.8392138 -0.5429,0 -1.490631,-0.50354 -2.106069,-1.118978 -0.825304,-0.825304 -1.665139,-0.04841 -3.2,2.960162 C 41.93646,18.313525 41,20.380509 41,20.663296 c 0,0.282787 1.411162,1.243898 3.135916,2.135803 3.074346,1.589806 3.179211,1.567347 5.341084,-1.1439 l 2.205168,-2.765545 0.658916,3.29458 c 1.21154,6.057701 0.866737,8.245315 -1.196384,7.590506 -1.626348,-0.516183 -1.933562,0.159916 -2.489486,5.478707 -0.348802,3.337157 -1.047284,6.839439 -1.552182,7.78285 -0.504898,0.943411 -3.761891,3.397668 -7.237762,5.453905 -5.597094,3.311098 -7.065649,3.734136 -12.842518,3.69947 C 23.435239,52.168144 19.15,51.559582 17.5,50.837313 Z M 29.418213,38.621825 c 3.04036,-1.166696 1.544901,-2.393011 -2.918213,-2.393011 -2.475,0 -4.5,0.4125 -4.5,0.916667 0,1.729454 4.450478,2.615171 7.418213,1.476344 z M 19,28.165456 l 0,-6.063359 -3.25,0.313359 c -3.065769,0.295595 -3.267748,0.560761 -3.563088,4.677762 -0.423932,5.909562 0.225838,7.135596 3.781703,7.135596 l 3.031385,0 0,-6.063358 z m 20.358152,2.313358 c 1.204569,-7.287618 0.931707,-8.25 -2.3391,-8.25 -2.374597,0 -3.086528,0.508522 -3.5,2.5 -0.285479,1.375 -0.770148,3.694814 -1.077042,5.155143 -0.61187,2.911522 0.732223,4.304652 4.177148,4.329544 1.676039,0.01211 2.248766,-0.768816 2.738994,-3.734687 z"
             id="path4144"
             inkscape:connector-curvature="0" />
          <path
             style="fill:#555659"
             d="M 17.5,50.837313 C 15.85,50.115043 12.28348,47.513349 9.5744002,45.05577 L 4.6488003,40.587444 3.9479088,29.658129 C 3.5624185,23.647006 3.6245943,17.731323 4.0860772,16.512166 5.3972007,13.048411 10.072578,8.2786512 15,5.3779226 18.78807,3.1479205 20.68655,2.7288139 27,2.7288139 c 6.326703,0 8.203978,0.4162522 12,2.6607863 4.66159,2.7563324 11.121504,8.8392138 9.387091,8.8392138 -0.5429,0 -1.490631,-0.50354 -2.106069,-1.118978 -0.825304,-0.825304 -1.665139,-0.04841 -3.2,2.960162 C 41.93646,18.313525 41,20.380509 41,20.663296 c 0,0.282787 1.435638,1.256555 3.190307,2.16393 3.097337,1.601695 3.247883,1.580587 5.166007,-0.72432 1.649761,-1.982429 1.847109,-2.044145 1.196239,-0.374092 -1.712118,4.393086 -1.741997,5.490073 -0.166007,6.094837 C 51.273946,28.164178 52,28.830523 52,29.304418 c 0,0.473895 -0.608529,0.628112 -1.352286,0.342706 -1.007477,-0.386606 -1.51476,1.03555 -1.989485,5.57748 -0.35046,3.35302 -1.050299,6.868282 -1.555197,7.811693 -0.504898,0.943411 -3.761891,3.397668 -7.237762,5.453905 -5.597094,3.311098 -7.065649,3.734136 -12.842518,3.69947 C 23.435239,52.168144 19.15,51.559582 17.5,50.837313 Z M 29.418213,38.621825 c 3.04036,-1.166696 1.544901,-2.393011 -2.918213,-2.393011 -2.475,0 -4.5,0.4125 -4.5,0.916667 0,1.729454 4.450478,2.615171 7.418213,1.476344 z M 19,28.165456 l 0,-6.063359 -3.25,0.313359 c -3.065769,0.295595 -3.267748,0.560761 -3.563088,4.677762 -0.423932,5.909562 0.225838,7.135596 3.781703,7.135596 l 3.031385,0 0,-6.063358 z m 20.358152,2.313358 c 1.204569,-7.287618 0.931707,-8.25 -2.3391,-8.25 -2.374597,0 -3.086528,0.508522 -3.5,2.5 -0.285479,1.375 -0.770148,3.694814 -1.077042,5.155143 -0.61187,2.911522 0.732223,4.304652 4.177148,4.329544 1.676039,0.01211 2.248766,-0.768816 2.738994,-3.734687 z"
             id="path4142"
             inkscape:connector-curvature="0" />
          <path
             style="fill:#323031"
             d="M 45.81549,35.204818 C 46.164083,27.913699 46.650532,25.578282 48.128461,24.100353 49.157807,23.071007 50,21.703814 50,21.062147 c 0,-0.641666 0.241848,-0.924818 0.537441,-0.629226 0.295592,0.295593 -0.0241,1.769889 -0.710428,3.276214 -1.094549,2.402273 -1.007,2.926141 0.712559,4.263759 1.48624,1.156122 1.554849,1.385892 0.283652,0.949936 -1.413146,-0.484637 -1.78459,0.431699 -2.362506,5.828199 -0.377151,3.521786 -1.225939,7.142028 -1.886194,8.044981 -0.955509,1.306735 -1.11039,-0.242259 -0.759034,-7.591192 z M 5.0784724,38.572585 C 3.7967226,33.956575 3.6728471,17.293714 4.905808,15.34698 c 0.542075,-0.855888 1.1539655,3.823281 1.6076373,12.293716 0.4028502,7.521553 0.4849303,13.923076 0.1824002,14.225606 -0.30253,0.30253 -1.0303479,-1.179643 -1.6173731,-3.293717 z"
             id="path4140"
             inkscape:connector-curvature="0" />
        </svg>
      </g>
    </g>
  </g>
  <g
     id="g5978"
     inkscape:groupmode="layer"
     inkscape:label="Top Side"
     transform="translate(18.216535,18.216535)">
    <g
       id="g5980"
       inkscape:groupmode="layer"
       inkscape:label="Footer">
      <g
         id="g5982"
         inkscape:groupmode="layer"
         inkscape:label="Headline Layer">
        <rect
           id="rect5984"
           y="70.866142"
           x="159.44882"
           width="198.4252"
           style="fill:#f88028;stroke:none"
           height="88.58268" />
        <text
           id="text5986"
           style="font-weight:bold;font-size:17.71653557px;fill:#ffffff"
           x="177.16536"
           y="124.01575" />
      </g>
      <g
         id="g5988"
         inkscape:groupmode="layer"
         inkscape:label="Headline Layer">
        <rect
           id="rect5990"
           y="141.73228"
           x="159.44882"
           width="198.4252"
           style="fill:#f8a868;stroke:none"
           height="17.716536" />
        <text
           id="text5992"
           style="font-weight:normal;font-size:10.62992096px;fill:#ffffff"
           x="170.07874"
           y="155.90552" />
      </g>
    </g>
    <path
       id="path5994"
       style="fill:#ffffff;stroke:#333333;stroke-width:1;stroke-linejoin:round;stroke-dasharray:none"
       d="m 166.53543,148.8189 53.14961,0 0,-56.692916 -53.14961,0 0,56.692916"
       inkscape:connector-curvature="0" />
    <path
       id="path5996"
       style="fill:#ffffff;stroke:#333333;stroke-width:1;stroke-linejoin:round;stroke-dasharray:none"
       d="m 230.31496,148.8189 53.14961,0 0,-56.692916 -53.14961,0 0,56.692916"
       inkscape:connector-curvature="0" />
    <path
       id="path5998"
       style="fill:#ffffff;stroke:#333333;stroke-width:1;stroke-linejoin:round;stroke-dasharray:none"
       d="m 294.09449,148.8189 56.69291,0 0,-49.606302 -56.69291,0 0,49.606302"
       inkscape:connector-curvature="0" />
  </g>
  <g
     id="g6000"
     inkscape:groupmode="layer"
     inkscape:label="Right Side"
     transform="matrix(0,1,-1,0,730.42126,-73.909449)">
    <g
       id="g6002"
       inkscape:groupmode="layer"
       inkscape:label="Footer">
      <g
         id="g6004"
         inkscape:groupmode="layer"
         inkscape:label="Headline Layer">
        <rect
           id="rect6006"
           y="265.74802"
           x="251.5748"
           width="301.18109"
           style="fill:#f88028;stroke:none"
           height="88.58268" />
        <text
           id="text6008"
           style="font-weight:bold;font-size:17.71653557px;fill:#ffffff"
           x="269.29135"
           y="318.89764">My Yappi Case</text>
      </g>
      <g
         id="g6010"
         inkscape:groupmode="layer"
         inkscape:label="Headline Layer">
        <rect
           id="rect6012"
           y="336.61417"
           x="251.5748"
           width="301.18109"
           style="fill:#f8a868;stroke:none"
           height="17.716536" />
        <text
           id="text6014"
           style="font-weight:normal;font-size:10.62992096px;fill:#ffffff"
           x="262.20471"
           y="350.78741">Yet an Awesome Paper Pi</text>
      </g>
      <g
         id="g6016"
         inkscape:groupmode="layer"
         inkscape:label="Logo Layer"
         transform="matrix(1.476378,0,0,1.476378,459.74409,270.17717)">
        <svg
           sodipodi:docname="kano_3.svg"
           viewBox="0 0 54 54"
           height="54"
           width="54"
           inkscape:version="0.91 r13725"
           version="1.1"
           id="svg6018">
          <metadata
             id="metadata6020">
            <rdf:RDF>
              <cc:Work
                 rdf:about="">
                <dc:format>image/svg+xml</dc:format>
                <dc:type
                   rdf:resource="http://purl.org/dc/dcmitype/StillImage" />
                <dc:title />
              </cc:Work>
            </rdf:RDF>
          </metadata>
          <defs
             id="defs6022" />
          <sodipodi:namedview
             inkscape:current-layer="svg2"
             inkscape:window-maximized="1"
             inkscape:window-y="0"
             inkscape:window-x="1920"
             inkscape:cy="26.885593"
             inkscape:cx="-10.067796"
             inkscape:zoom="4.3703704"
             showgrid="false"
             id="namedview6024"
             inkscape:window-height="1001"
             inkscape:window-width="1280"
             inkscape:pageshadow="2"
             inkscape:pageopacity="0"
             guidetolerance="10"
             gridtolerance="10"
             objecttolerance="10"
             borderopacity="1"
             bordercolor="#666666"
             pagecolor="#ffffff" />
          <ellipse
             ry="23.855614"
             rx="23.626799"
             cy="27.686441"
             cx="26.542374"
             id="ellipse6026"
             style="fill:#ffffff;fill-opacity:1;stroke:none;stroke-width:7.3396225;stroke-linecap:butt;stroke-linejoin:round;stroke-miterlimit:4;stroke-dasharray:none;stroke-dashoffset:0;stroke-opacity:1" />
          <path
             style="fill:#fdd9d3"
             d="M 18.5,51.848102 C 5.8141427,47.090146 -1.5484172,33.113675 1.9034885,20.342665 5.0993983,8.5187618 14.822826,1 26.917847,1 38.21075,1 46.660017,6.5214301 51.280338,16.92041 53.657893,22.271584 53.297677,32.540917 50.540652,38.007974 48.367112,42.318007 42.419664,48.682105 38.779881,50.592649 35.171324,52.486803 22.323548,53.282161 18.5,51.848102 Z m 10.97619,-13.46715 c 2.064439,-2.064438 1.929407,-2.166156 -4.492337,-3.384014 -6.120412,-1.160712 -7.63917,-0.377547 -5.417878,2.793791 1.877618,2.680676 7.485759,3.01468 9.910215,0.590223 z M 42.343705,32.79367 C 43.011738,30.239109 43.146283,30.447113 40.25,29.55684 38.970769,29.163624 38,29.290465 38,29.850825 c 0,0.54208 -0.258041,1.658045 -0.573425,2.479923 -0.506205,1.319147 0.408441,1.949158 3.706794,2.553251 0.348352,0.0638 0.893004,-0.876847 1.210336,-2.090329 z M 12,27.5 C 12,25.666667 11.466667,25 10,25 c -1.4666667,0 -2,0.666667 -2,2.5 0,1.833333 0.5333333,2.5 2,2.5 1.466667,0 2,-0.666667 2,-2.5 z"
             id="path6028"
             inkscape:connector-curvature="0" />
          <path
             style="fill:#ceb1ad"
             d="M 19.993526,52.065659 C 14.369105,50.354788 6,44.359468 6,42.04121 c 0,-0.377334 7.9875,0.57157 17.75,2.108675 9.7625,1.537106 18.2,2.817204 18.75,2.844662 0.55,0.02746 -0.125,0.921739 -1.5,1.98729 -4.278033,3.315246 -15.047988,4.896312 -21.006474,3.083822 z M 19.694561,40.888876 c -2.60171,-1.513534 -4.034219,-5.774687 -2.544691,-7.569458 1.25693,-1.514508 6.06347,-1.19864 12.60013,0.828033 3.816448,1.183279 3.935589,1.711247 1.17742,5.21769 -1.579795,2.008384 -2.94694,2.627629 -5.75,2.60445 -2.022581,-0.01672 -4.489867,-0.503046 -5.482859,-1.080715 z m 10.076618,-2.709944 c 1.510704,-1.924205 0.185855,-2.612952 -7.139118,-3.711399 -4.917524,-0.737428 -5.24973,-0.490174 -3.566689,2.654615 2.098773,3.921594 7.999341,4.504046 10.705807,1.056784 z m 7.372222,-2.249527 C 34.737147,34.965694 34.737728,34.973319 36.569393,28.400748 37.081183,26.564291 35.329579,25.263506 22.57721,18.009813 14.559744,13.449387 8.0096081,9.4440503 8.0213514,9.1090647 8.0624019,7.9380684 15.53319,3.2711408 19.355971,2.0284394 24.236857,0.44177157 33.406222,1.1009517 38.149661,3.3795062 44.939095,6.6408739 50.666986,13.771821 52.543685,21.299371 c 0.665241,2.668319 0.566279,2.766332 -2.113912,2.093647 l -2.811825,-0.705723 2.107969,3.572742 c 2.348784,3.980891 2.013808,5.206219 -0.984574,3.601534 -2.219255,-1.187709 -3.090659,-0.407226 -4.899652,4.388429 -1.082264,2.869091 -2.709269,3.277016 -6.69829,1.679405 z m 5.202368,-3.143626 c 0.566612,-2.166726 -0.675955,-3.739348 -2.979138,-3.770466 -1.634521,-0.02208 -2.526652,4.263649 -1.079031,5.183595 2.110519,1.34121 3.460856,0.870998 4.058169,-1.413129 z M 6,27.5 6,23 l 4,0 4,0 0,4.5 0,4.5 -4,0 -4,0 0,-4.5 z m 6,0 C 12,25.666667 11.466667,25 10,25 c -1.4666667,0 -2,0.666667 -2,2.5 0,1.833333 0.5333333,2.5 2,2.5 1.466667,0 2,-0.666667 2,-2.5 z"
             id="path6030"
             inkscape:connector-curvature="0" />
          <path
             style="fill:#a29898"
             d="M 17.54929,50.543147 C 11.314305,47.9415 4.1030732,42 7.1804248,42 8.9441742,42 40.835309,46.849727 42.5,47.371095 c 2.243834,0.70275 -7.417465,4.436247 -13,5.023698 -5.040557,0.53042 -6.951561,0.234328 -11.95071,-1.851646 z M 19.174314,39.685549 C 17.978441,38.412601 17,36.387601 17,35.185549 c 0,-1.954645 0.501839,-2.175018 4.75,-2.085869 6.882056,0.144422 9.702073,1.152414 10.056898,3.594758 0.717844,4.941087 -8.704714,7.172137 -12.632584,2.991111 z m 9.60318,-0.242253 C 29.999872,38.587109 31,37.483261 31,36.9903 c 0,-1.092612 -6.471485,-2.97706 -10.25,-2.984723 -3.977651,-0.0081 -3.541306,3.366032 0.75,5.799478 2.75234,1.560753 4.66873,1.46549 7.277494,-0.361759 z M 37.75,35.837719 c -3.118516,-1.138979 -3.171756,-1.329423 -1.617816,-5.787059 1.025024,-2.940384 1.427285,-3.193131 4.25,-2.67034 C 42.096983,27.697915 35.493528,23.861166 25.70784,18.85421 8.2142233,9.9034072 7.9457513,9.7174016 9.7078399,7.7689174 13.520455,3.5529997 19.096809,1.5463559 27,1.5463559 c 8.521229,0 13.32179,1.9616402 18.638047,7.6160151 4.7852,5.089542 9.342694,15.857027 6.16275,14.560044 -5.584252,-2.277611 -5.371383,-2.38171 -2.994393,1.464341 3.074512,4.974664 2.859263,6.208834 -0.756744,4.338924 -3.437573,-1.777638 -4.411669,-1.92044 -3.546057,-0.51985 0.842164,1.36265 -1.640601,8.014095 -2.954491,7.915223 C 40.9721,36.877632 39.2625,36.390132 37.75,35.837719 Z m 4.789625,-2.962565 c 0.673779,-2.12289 -0.749518,-3.827824 -3.222237,-3.859841 -1.819675,-0.02356 -2.766886,4.085176 -1.1744,5.09422 2.238296,1.418248 3.683505,1.012498 4.396637,-1.234379 z M 6.71406,31.380727 C 6.321327,30.987994 6,28.941667 6,26.833333 6,23.018724 6.0198192,23 10.057498,23 l 4.057498,0 -0.307498,4.25 c -0.283733,3.921539 -0.542131,4.272984 -3.343438,4.547393 -1.6697671,0.163567 -3.3572671,-0.02393 -3.75,-0.416666 z M 13,27.5 C 13,25.388889 12.533333,25 10,25 c -2.5333333,0 -3,0.388889 -3,2.5 0,2.111111 0.4666667,2.5 3,2.5 2.533333,0 3,-0.388889 3,-2.5 z"
             id="path6032"
             inkscape:connector-curvature="0" />
          <path
             style="fill:#7192a1"
             d="M 18,50.444359 C 11.041318,47.746821 3.7642592,41.93448 7.5192308,42.073148 8.6086538,42.113379 16.925,43.37466 26,44.875995 l 16.5,2.729699 -4,2.078322 C 31.857587,53.135284 25.545548,53.369397 18,50.444359 Z m 1.454545,-10.898904 c -1.35,-1.35 -2.454545,-3.375 -2.454545,-4.5 0,-1.697962 0.637071,-2.044508 3.75,-2.039878 C 26.176939,33.013648 32,34.84671 32,36.547004 32,39.030744 28.163621,42 24.954545,42 c -1.900112,0 -3.968566,-0.923112 -5.5,-2.454545 z M 29.521384,38.976371 C 32.035473,36.198334 30.547258,35.015186 23.642449,34.302546 18.842922,33.807192 18,33.965178 18,35.360097 c 0,4.867106 8.091097,7.406698 11.521384,3.616274 z M 38,35.735808 c -1.375,-0.620857 -2.614529,-1.19243 -2.754509,-1.270162 -0.26221,-0.145607 1.827881,-6.690942 2.335964,-7.315311 C 37.957446,26.688291 45,29.022981 45,29.609671 45,31.005048 41.977037,36.989437 41.301027,36.93232 40.860462,36.895096 39.375,36.356665 38,35.735808 Z m 4.49716,-2.726859 C 43.303067,30.46976 42.390627,29 40.008371,29 c -1.956286,0 -3.59176,3.24704 -2.513902,4.991051 1.075668,1.740467 4.342106,1.099216 5.002691,-0.982102 z M 6.4338558,30.688227 C 6.1132042,29.852622 5.9969109,27.893433 6.1754264,26.334473 6.4629487,23.823566 6.8995379,23.5 10,23.5 c 3.322602,0 3.515731,0.19007 3.810365,3.75 0.262724,3.174375 0.0067,3.75 -1.668212,3.75 -1.088218,0 -2.6865892,0.271689 -3.5519361,0.603754 -0.9228683,0.354138 -1.8143951,-0.02438 -2.1563611,-0.915527 z M 12.816422,27.25 C 12.565323,25.067713 11.983898,24.5 10,24.5 8.0161024,24.5 7.4346775,25.067713 7.1835777,27.25 6.8979764,29.732137 7.1723095,30 10,30 c 2.827691,0 3.102024,-0.267863 2.816422,-2.75 z M 28.10391,19.618746 7.7078194,9.3442394 10.60391,7.3065054 C 16.825485,2.9289089 20.405953,1.7058824 27,1.7058824 c 9.80952,0 17.211209,4.246533 22.022069,12.6346086 3.832462,6.682168 3.93581,9.116737 0.34879,8.216453 l -2.62914,-0.659872 2.12914,3.608624 C 50.041887,27.490439 51,29.313598 51,29.55716 51,30.851308 46.675874,28.974352 28.10391,19.618746 Z"
             id="path6034"
             inkscape:connector-curvature="0" />
          <path
             style="fill:#856e63"
             d="M 28.31259,51.303236 C 28.68741,50.696765 25.730351,49.849183 20.814037,49.153925 14.649302,48.282118 11.832346,47.346765 9.1038225,45.265618 6.7595834,43.47758 6.03039,42.439842 7.0055171,42.279453 7.8274827,42.144257 16.15,43.287113 25.5,44.819135 l 17,2.785494 -3.145027,1.669082 C 35.574688,51.279928 27.398222,52.782714 28.31259,51.303236 Z M 19.454545,39.545455 c -1.35,-1.35 -2.454545,-3.375 -2.454545,-4.5 0,-1.697962 0.637071,-2.044508 3.75,-2.039878 C 26.176939,33.013648 32,34.84671 32,36.547004 32,39.030744 28.163621,42 24.954545,42 c -1.900112,0 -3.968566,-0.923112 -5.5,-2.454545 z M 29.521384,38.976371 C 32.035473,36.198334 30.547258,35.015186 23.642449,34.302546 18.842922,33.807192 18,33.965178 18,35.360097 c 0,4.867106 8.091097,7.406698 11.521384,3.616274 z M 38,35.735808 c -1.375,-0.620857 -2.614529,-1.19243 -2.754509,-1.270162 -0.26221,-0.145607 1.827881,-6.690942 2.335964,-7.315311 C 37.957446,26.688291 45,29.022981 45,29.609671 45,31.005048 41.977037,36.989437 41.301027,36.93232 40.860462,36.895096 39.375,36.356665 38,35.735808 Z m 4.49716,-2.726859 c 0.783455,-2.468449 0.120474,-3.614171 -2.485747,-4.295714 -1.513411,-0.395765 -2.167659,0.06112 -2.609727,1.822458 -0.324485,1.29285 -0.29605,2.826212 0.06319,3.407472 1.100157,1.780091 4.363052,1.174353 5.032286,-0.934216 z M 6.4338558,30.688227 C 6.1132042,29.852622 5.9969109,27.893433 6.1754264,26.334473 6.4629487,23.823566 6.8995379,23.5 10,23.5 c 3.322602,0 3.515731,0.19007 3.810365,3.75 0.262724,3.174375 0.0067,3.75 -1.668212,3.75 -1.088218,0 -2.6865892,0.271689 -3.5519361,0.603754 -0.9228683,0.354138 -1.8143951,-0.02438 -2.1563611,-0.915527 z M 12.816422,27.25 C 12.565323,25.067713 11.983898,24.5 10,24.5 8.0161024,24.5 7.4346775,25.067713 7.1835777,27.25 6.8979764,29.732137 7.1723095,30 10,30 c 2.827691,0 3.102024,-0.267863 2.816422,-2.75 z M 28.014459,19.573978 7.5289178,9.2547033 12.362849,6.1891148 c 9.51562,-6.03462754 19.645605,-6.10633873 28.951132,-0.204948 4.566202,2.8957996 8.937947,9.0346822 10.262344,14.4105672 0.682048,2.768516 0.592195,2.864378 -2.060732,2.198536 l -2.773874,-0.696198 2.12914,3.608624 C 50.041887,27.490439 51,29.313598 51,29.55716 51,30.851879 46.667618,28.970219 28.014459,19.573978 Z"
             id="path6036"
             inkscape:connector-curvature="0" />
          <path
             style="fill:#5b5858"
             d="M 28.406714,51.15094 C 28.695326,50.683956 25.254868,49.781941 20.761252,49.146461 16.267637,48.51098 12.120558,47.483551 11.545521,46.863284 10.780017,46.037568 11.303475,45.88257 13.5,46.284555 c 1.65,0.301966 6.825,1.070219 11.5,1.707228 10.693442,1.457074 12.193231,1.937838 9.5,3.045267 -2.67633,1.100479 -6.75009,1.176622 -6.093286,0.11389 z m 7.463554,-2.203666 C 35.092679,48.512114 28.900957,47.344453 22.110887,46.352472 15.320817,45.360492 9.0306109,43.952075 8.1326522,43.222657 6.6622169,42.028212 6.6987158,41.943017 8.5,42.365197 c 1.1,0.257816 8.8625,1.485683 17.25,2.728594 8.3875,1.242912 15.25,2.577788 15.25,2.966393 0,1.132056 -3.584388,1.751909 -5.129732,0.88709 z M 23.75,41.337719 c 0.6875,-0.277412 1.8125,-0.277412 2.5,0 0.6875,0.277413 0.125,0.504386 -1.25,0.504386 -1.375,0 -1.9375,-0.226973 -1.25,-0.504386 z M 17.116001,35.25 c -0.102089,-1.980163 0.333727,-2.230807 3.633999,-2.089963 3.602775,0.153754 3.624839,0.17569 0.562013,0.558733 -1.917415,0.239796 -3.365745,1.072751 -3.633998,2.089963 -0.316914,1.201728 -0.479589,1.040002 -0.562014,-0.558733 z m 21.129608,0.211224 c -2.976475,-1.251514 -3.152827,-1.575059 -2.210067,-4.054707 1.600644,-4.210013 1.822148,-4.352088 5.037609,-3.231172 1.665918,0.580742 2.843381,1.241456 2.616584,1.468253 -0.226797,0.226797 -1.564327,-0.02562 -2.972288,-0.560925 -2.294442,-0.872345 -2.663844,-0.675197 -3.561899,1.900966 -0.92104,2.642099 -0.770639,2.954891 1.862118,3.872675 2.072149,0.722355 2.996859,0.672875 3.344263,-0.178944 0.364462,-0.893643 0.499201,-0.890362 0.559124,0.01361 0.13078,1.972922 -1.267323,2.203248 -4.675444,0.770241 z M 6.1896347,27.25 C 6.4842691,23.69007 6.6773983,23.5 10,23.5 c 3.322602,0 3.515731,0.19007 3.810365,3.75 0.293304,3.543858 0.155876,3.742514 -2.5,3.613818 C 8.9520044,30.749539 8.8618782,30.657935 10.75,30.294267 12.472877,29.962427 13,29.174361 13,26.930449 13,24.318148 12.662423,24 9.890594,24 6.9258242,24 6.8001945,24.162805 7.1897932,27.5 7.4145261,29.425 7.2115945,31 6.738834,31 6.2660735,31 6.0189338,29.3125 6.1896347,27.25 Z M 29.118468,19.966415 C 6.333583,8.8492608 6.4751231,9.0244215 16.5,4.350633 c 14.176705,-6.6094498 30.155059,0.949109 34.987089,16.550639 0.608702,1.965362 0.450462,2.283044 -0.87169,1.75 -0.888469,-0.3582 -2.351273,-0.947776 -3.250674,-1.310171 -1.225916,-0.493956 -0.951799,0.507364 1.095022,4 1.501663,2.562395 2.350037,4.638858 1.885275,4.614364 -0.464762,-0.02449 -10.016712,-4.519566 -21.226554,-9.98905 z"
             id="path6038"
             inkscape:connector-curvature="0" />
          <path
             style="fill:#3d3d3d"
             d="M 23.322495,46.033539 C 14.974867,44.640093 7.8799244,43.230057 7.5559552,42.900127 c -0.3239692,-0.32993 4.8893568,0.246481 11.5851678,1.280915 6.695812,1.034434 14.465754,2.21763 17.26654,2.629326 C 39.208448,47.222064 40.825,47.785745 40,48.062992 39.175,48.34024 31.670123,47.426986 23.322495,46.033539 Z M 13.252183,27.5 c 0.0111,-2.2 0.215885,-2.982253 0.455078,-1.738341 0.239193,1.243913 0.230112,3.043913 -0.02018,4 C 13.436788,30.717747 13.241084,29.7 13.252183,27.5 Z M 6.2320027,27 c 0,-1.925 0.2057953,-2.7125 0.4573228,-1.75 0.2515276,0.9625 0.2515276,2.5375 0,3.5 C 6.437798,29.7125 6.2320027,28.925 6.2320027,27 Z M 29,19.5 C 17.725,13.783711 8.8971759,9.0827286 9.3826132,9.0533733 9.8680504,9.024018 18.593677,13.05 28.772894,18 c 10.179216,4.95 18.683368,9 18.898115,9 0.214747,0 -1.147461,-2.404139 -3.027128,-5.342532 l -3.417576,-5.342531 5.446238,2.949808 c 2.995431,1.622394 5.233053,3.162992 4.972494,3.423552 -0.260559,0.260559 -1.382701,-0.01272 -2.493649,-0.607277 -3.352091,-1.793985 -3.457984,-1.279902 -0.704256,3.41898 1.450447,2.475 2.280706,4.475982 1.845022,4.446627 C 49.856469,29.917271 40.275,25.216289 29,19.5 Z"
             id="path6040"
             inkscape:connector-curvature="0" />
        </svg>
      </g>
    </g>
    <g
       id="g6042"
       inkscape:groupmode="layer"
       inkscape:label="Footer">
      <g
         id="g6044"
         inkscape:groupmode="layer"
         inkscape:label="Headline Layer">
        <rect
           id="rect6046"
           y="265.74802"
           x="251.5748"
           width="301.18109"
           style="fill:#f88028;stroke:none"
           height="88.58268" />
        <text
           id="text6048"
           style="font-weight:bold;font-size:17.71653557px;fill:#ffffff"
           x="269.29135"
           y="318.89764">My Yappi Case</text>
      </g>
      <g
         id="g6050"
         inkscape:groupmode="layer"
         inkscape:label="Headline Layer">
        <rect
           id="rect6052"
           y="336.61417"
           x="251.5748"
           width="301.18109"
           style="fill:#f8a868;stroke:none"
           height="17.716536" />
        <text
           id="text6054"
           style="font-weight:normal;font-size:10.62992096px;fill:#ffffff"
           x="262.20471"
           y="350.78741">Yet an Awesome Paper Pi</text>
      </g>
      <g
         id="g6056"
         inkscape:groupmode="layer"
         inkscape:label="Logo Layer"
         transform="matrix(1.476378,0,0,1.476378,459.74409,270.17717)">
        <svg
           sodipodi:docname="kano_3.svg"
           viewBox="0 0 54 54"
           height="54"
           width="54"
           inkscape:version="0.91 r13725"
           version="1.1"
           id="svg6058">
          <metadata
             id="metadata6060">
            <rdf:RDF>
              <cc:Work
                 rdf:about="">
                <dc:format>image/svg+xml</dc:format>
                <dc:type
                   rdf:resource="http://purl.org/dc/dcmitype/StillImage" />
                <dc:title />
              </cc:Work>
            </rdf:RDF>
          </metadata>
          <defs
             id="defs6062" />
          <sodipodi:namedview
             inkscape:current-layer="svg2"
             inkscape:window-maximized="1"
             inkscape:window-y="0"
             inkscape:window-x="1920"
             inkscape:cy="26.885593"
             inkscape:cx="-10.067796"
             inkscape:zoom="4.3703704"
             showgrid="false"
             id="namedview6064"
             inkscape:window-height="1001"
             inkscape:window-width="1280"
             inkscape:pageshadow="2"
             inkscape:pageopacity="0"
             guidetolerance="10"
             gridtolerance="10"
             objecttolerance="10"
             borderopacity="1"
             bordercolor="#666666"
             pagecolor="#ffffff" />
          <ellipse
             ry="23.855614"
             rx="23.626799"
             cy="27.686441"
             cx="26.542374"
             id="ellipse6066"
             style="fill:#ffffff;fill-opacity:1;stroke:none;stroke-width:7.3396225;stroke-linecap:butt;stroke-linejoin:round;stroke-miterlimit:4;stroke-dasharray:none;stroke-dashoffset:0;stroke-opacity:1" />
          <path
             style="fill:#fdd9d3"
             d="M 18.5,51.848102 C 5.8141427,47.090146 -1.5484172,33.113675 1.9034885,20.342665 5.0993983,8.5187618 14.822826,1 26.917847,1 38.21075,1 46.660017,6.5214301 51.280338,16.92041 53.657893,22.271584 53.297677,32.540917 50.540652,38.007974 48.367112,42.318007 42.419664,48.682105 38.779881,50.592649 35.171324,52.486803 22.323548,53.282161 18.5,51.848102 Z m 10.97619,-13.46715 c 2.064439,-2.064438 1.929407,-2.166156 -4.492337,-3.384014 -6.120412,-1.160712 -7.63917,-0.377547 -5.417878,2.793791 1.877618,2.680676 7.485759,3.01468 9.910215,0.590223 z M 42.343705,32.79367 C 43.011738,30.239109 43.146283,30.447113 40.25,29.55684 38.970769,29.163624 38,29.290465 38,29.850825 c 0,0.54208 -0.258041,1.658045 -0.573425,2.479923 -0.506205,1.319147 0.408441,1.949158 3.706794,2.553251 0.348352,0.0638 0.893004,-0.876847 1.210336,-2.090329 z M 12,27.5 C 12,25.666667 11.466667,25 10,25 c -1.4666667,0 -2,0.666667 -2,2.5 0,1.833333 0.5333333,2.5 2,2.5 1.466667,0 2,-0.666667 2,-2.5 z"
             id="path6068"
             inkscape:connector-curvature="0" />
          <path
             style="fill:#ceb1ad"
             d="M 19.993526,52.065659 C 14.369105,50.354788 6,44.359468 6,42.04121 c 0,-0.377334 7.9875,0.57157 17.75,2.108675 9.7625,1.537106 18.2,2.817204 18.75,2.844662 0.55,0.02746 -0.125,0.921739 -1.5,1.98729 -4.278033,3.315246 -15.047988,4.896312 -21.006474,3.083822 z M 19.694561,40.888876 c -2.60171,-1.513534 -4.034219,-5.774687 -2.544691,-7.569458 1.25693,-1.514508 6.06347,-1.19864 12.60013,0.828033 3.816448,1.183279 3.935589,1.711247 1.17742,5.21769 -1.579795,2.008384 -2.94694,2.627629 -5.75,2.60445 -2.022581,-0.01672 -4.489867,-0.503046 -5.482859,-1.080715 z m 10.076618,-2.709944 c 1.510704,-1.924205 0.185855,-2.612952 -7.139118,-3.711399 -4.917524,-0.737428 -5.24973,-0.490174 -3.566689,2.654615 2.098773,3.921594 7.999341,4.504046 10.705807,1.056784 z m 7.372222,-2.249527 C 34.737147,34.965694 34.737728,34.973319 36.569393,28.400748 37.081183,26.564291 35.329579,25.263506 22.57721,18.009813 14.559744,13.449387 8.0096081,9.4440503 8.0213514,9.1090647 8.0624019,7.9380684 15.53319,3.2711408 19.355971,2.0284394 24.236857,0.44177157 33.406222,1.1009517 38.149661,3.3795062 44.939095,6.6408739 50.666986,13.771821 52.543685,21.299371 c 0.665241,2.668319 0.566279,2.766332 -2.113912,2.093647 l -2.811825,-0.705723 2.107969,3.572742 c 2.348784,3.980891 2.013808,5.206219 -0.984574,3.601534 -2.219255,-1.187709 -3.090659,-0.407226 -4.899652,4.388429 -1.082264,2.869091 -2.709269,3.277016 -6.69829,1.679405 z m 5.202368,-3.143626 c 0.566612,-2.166726 -0.675955,-3.739348 -2.979138,-3.770466 -1.634521,-0.02208 -2.526652,4.263649 -1.079031,5.183595 2.110519,1.34121 3.460856,0.870998 4.058169,-1.413129 z M 6,27.5 6,23 l 4,0 4,0 0,4.5 0,4.5 -4,0 -4,0 0,-4.5 z m 6,0 C 12,25.666667 11.466667,25 10,25 c -1.4666667,0 -2,0.666667 -2,2.5 0,1.833333 0.5333333,2.5 2,2.5 1.466667,0 2,-0.666667 2,-2.5 z"
             id="path6070"
             inkscape:connector-curvature="0" />
          <path
             style="fill:#a29898"
             d="M 17.54929,50.543147 C 11.314305,47.9415 4.1030732,42 7.1804248,42 8.9441742,42 40.835309,46.849727 42.5,47.371095 c 2.243834,0.70275 -7.417465,4.436247 -13,5.023698 -5.040557,0.53042 -6.951561,0.234328 -11.95071,-1.851646 z M 19.174314,39.685549 C 17.978441,38.412601 17,36.387601 17,35.185549 c 0,-1.954645 0.501839,-2.175018 4.75,-2.085869 6.882056,0.144422 9.702073,1.152414 10.056898,3.594758 0.717844,4.941087 -8.704714,7.172137 -12.632584,2.991111 z m 9.60318,-0.242253 C 29.999872,38.587109 31,37.483261 31,36.9903 c 0,-1.092612 -6.471485,-2.97706 -10.25,-2.984723 -3.977651,-0.0081 -3.541306,3.366032 0.75,5.799478 2.75234,1.560753 4.66873,1.46549 7.277494,-0.361759 z M 37.75,35.837719 c -3.118516,-1.138979 -3.171756,-1.329423 -1.617816,-5.787059 1.025024,-2.940384 1.427285,-3.193131 4.25,-2.67034 C 42.096983,27.697915 35.493528,23.861166 25.70784,18.85421 8.2142233,9.9034072 7.9457513,9.7174016 9.7078399,7.7689174 13.520455,3.5529997 19.096809,1.5463559 27,1.5463559 c 8.521229,0 13.32179,1.9616402 18.638047,7.6160151 4.7852,5.089542 9.342694,15.857027 6.16275,14.560044 -5.584252,-2.277611 -5.371383,-2.38171 -2.994393,1.464341 3.074512,4.974664 2.859263,6.208834 -0.756744,4.338924 -3.437573,-1.777638 -4.411669,-1.92044 -3.546057,-0.51985 0.842164,1.36265 -1.640601,8.014095 -2.954491,7.915223 C 40.9721,36.877632 39.2625,36.390132 37.75,35.837719 Z m 4.789625,-2.962565 c 0.673779,-2.12289 -0.749518,-3.827824 -3.222237,-3.859841 -1.819675,-0.02356 -2.766886,4.085176 -1.1744,5.09422 2.238296,1.418248 3.683505,1.012498 4.396637,-1.234379 z M 6.71406,31.380727 C 6.321327,30.987994 6,28.941667 6,26.833333 6,23.018724 6.0198192,23 10.057498,23 l 4.057498,0 -0.307498,4.25 c -0.283733,3.921539 -0.542131,4.272984 -3.343438,4.547393 -1.6697671,0.163567 -3.3572671,-0.02393 -3.75,-0.416666 z M 13,27.5 C 13,25.388889 12.533333,25 10,25 c -2.5333333,0 -3,0.388889 -3,2.5 0,2.111111 0.4666667,2.5 3,2.5 2.533333,0 3,-0.388889 3,-2.5 z"
             id="path6072"
             inkscape:connector-curvature="0" />
          <path
             style="fill:#7192a1"
             d="M 18,50.444359 C 11.041318,47.746821 3.7642592,41.93448 7.5192308,42.073148 8.6086538,42.113379 16.925,43.37466 26,44.875995 l 16.5,2.729699 -4,2.078322 C 31.857587,53.135284 25.545548,53.369397 18,50.444359 Z m 1.454545,-10.898904 c -1.35,-1.35 -2.454545,-3.375 -2.454545,-4.5 0,-1.697962 0.637071,-2.044508 3.75,-2.039878 C 26.176939,33.013648 32,34.84671 32,36.547004 32,39.030744 28.163621,42 24.954545,42 c -1.900112,0 -3.968566,-0.923112 -5.5,-2.454545 z M 29.521384,38.976371 C 32.035473,36.198334 30.547258,35.015186 23.642449,34.302546 18.842922,33.807192 18,33.965178 18,35.360097 c 0,4.867106 8.091097,7.406698 11.521384,3.616274 z M 38,35.735808 c -1.375,-0.620857 -2.614529,-1.19243 -2.754509,-1.270162 -0.26221,-0.145607 1.827881,-6.690942 2.335964,-7.315311 C 37.957446,26.688291 45,29.022981 45,29.609671 45,31.005048 41.977037,36.989437 41.301027,36.93232 40.860462,36.895096 39.375,36.356665 38,35.735808 Z m 4.49716,-2.726859 C 43.303067,30.46976 42.390627,29 40.008371,29 c -1.956286,0 -3.59176,3.24704 -2.513902,4.991051 1.075668,1.740467 4.342106,1.099216 5.002691,-0.982102 z M 6.4338558,30.688227 C 6.1132042,29.852622 5.9969109,27.893433 6.1754264,26.334473 6.4629487,23.823566 6.8995379,23.5 10,23.5 c 3.322602,0 3.515731,0.19007 3.810365,3.75 0.262724,3.174375 0.0067,3.75 -1.668212,3.75 -1.088218,0 -2.6865892,0.271689 -3.5519361,0.603754 -0.9228683,0.354138 -1.8143951,-0.02438 -2.1563611,-0.915527 z M 12.816422,27.25 C 12.565323,25.067713 11.983898,24.5 10,24.5 8.0161024,24.5 7.4346775,25.067713 7.1835777,27.25 6.8979764,29.732137 7.1723095,30 10,30 c 2.827691,0 3.102024,-0.267863 2.816422,-2.75 z M 28.10391,19.618746 7.7078194,9.3442394 10.60391,7.3065054 C 16.825485,2.9289089 20.405953,1.7058824 27,1.7058824 c 9.80952,0 17.211209,4.246533 22.022069,12.6346086 3.832462,6.682168 3.93581,9.116737 0.34879,8.216453 l -2.62914,-0.659872 2.12914,3.608624 C 50.041887,27.490439 51,29.313598 51,29.55716 51,30.851308 46.675874,28.974352 28.10391,19.618746 Z"
             id="path6074"
             inkscape:connector-curvature="0" />
          <path
             style="fill:#856e63"
             d="M 28.31259,51.303236 C 28.68741,50.696765 25.730351,49.849183 20.814037,49.153925 14.649302,48.282118 11.832346,47.346765 9.1038225,45.265618 6.7595834,43.47758 6.03039,42.439842 7.0055171,42.279453 7.8274827,42.144257 16.15,43.287113 25.5,44.819135 l 17,2.785494 -3.145027,1.669082 C 35.574688,51.279928 27.398222,52.782714 28.31259,51.303236 Z M 19.454545,39.545455 c -1.35,-1.35 -2.454545,-3.375 -2.454545,-4.5 0,-1.697962 0.637071,-2.044508 3.75,-2.039878 C 26.176939,33.013648 32,34.84671 32,36.547004 32,39.030744 28.163621,42 24.954545,42 c -1.900112,0 -3.968566,-0.923112 -5.5,-2.454545 z M 29.521384,38.976371 C 32.035473,36.198334 30.547258,35.015186 23.642449,34.302546 18.842922,33.807192 18,33.965178 18,35.360097 c 0,4.867106 8.091097,7.406698 11.521384,3.616274 z M 38,35.735808 c -1.375,-0.620857 -2.614529,-1.19243 -2.754509,-1.270162 -0.26221,-0.145607 1.827881,-6.690942 2.335964,-7.315311 C 37.957446,26.688291 45,29.022981 45,29.609671 45,31.005048 41.977037,36.989437 41.301027,36.93232 40.860462,36.895096 39.375,36.356665 38,35.735808 Z m 4.49716,-2.726859 c 0.783455,-2.468449 0.120474,-3.614171 -2.485747,-4.295714 -1.513411,-0.395765 -2.167659,0.06112 -2.609727,1.822458 -0.324485,1.29285 -0.29605,2.826212 0.06319,3.407472 1.100157,1.780091 4.363052,1.174353 5.032286,-0.934216 z M 6.4338558,30.688227 C 6.1132042,29.852622 5.9969109,27.893433 6.1754264,26.334473 6.4629487,23.823566 6.8995379,23.5 10,23.5 c 3.322602,0 3.515731,0.19007 3.810365,3.75 0.262724,3.174375 0.0067,3.75 -1.668212,3.75 -1.088218,0 -2.6865892,0.271689 -3.5519361,0.603754 -0.9228683,0.354138 -1.8143951,-0.02438 -2.1563611,-0.915527 z M 12.816422,27.25 C 12.565323,25.067713 11.983898,24.5 10,24.5 8.0161024,24.5 7.4346775,25.067713 7.1835777,27.25 6.8979764,29.732137 7.1723095,30 10,30 c 2.827691,0 3.102024,-0.267863 2.816422,-2.75 z M 28.014459,19.573978 7.5289178,9.2547033 12.362849,6.1891148 c 9.51562,-6.03462754 19.645605,-6.10633873 28.951132,-0.204948 4.566202,2.8957996 8.937947,9.0346822 10.262344,14.4105672 0.682048,2.768516 0.592195,2.864378 -2.060732,2.198536 l -2.773874,-0.696198 2.12914,3.608624 C 50.041887,27.490439 51,29.313598 51,29.55716 51,30.851879 46.667618,28.970219 28.014459,19.573978 Z"
             id="path6076"
             inkscape:connector-curvature="0" />
          <path
             style="fill:#5b5858"
             d="M 28.406714,51.15094 C 28.695326,50.683956 25.254868,49.781941 20.761252,49.146461 16.267637,48.51098 12.120558,47.483551 11.545521,46.863284 10.780017,46.037568 11.303475,45.88257 13.5,46.284555 c 1.65,0.301966 6.825,1.070219 11.5,1.707228 10.693442,1.457074 12.193231,1.937838 9.5,3.045267 -2.67633,1.100479 -6.75009,1.176622 -6.093286,0.11389 z m 7.463554,-2.203666 C 35.092679,48.512114 28.900957,47.344453 22.110887,46.352472 15.320817,45.360492 9.0306109,43.952075 8.1326522,43.222657 6.6622169,42.028212 6.6987158,41.943017 8.5,42.365197 c 1.1,0.257816 8.8625,1.485683 17.25,2.728594 8.3875,1.242912 15.25,2.577788 15.25,2.966393 0,1.132056 -3.584388,1.751909 -5.129732,0.88709 z M 23.75,41.337719 c 0.6875,-0.277412 1.8125,-0.277412 2.5,0 0.6875,0.277413 0.125,0.504386 -1.25,0.504386 -1.375,0 -1.9375,-0.226973 -1.25,-0.504386 z M 17.116001,35.25 c -0.102089,-1.980163 0.333727,-2.230807 3.633999,-2.089963 3.602775,0.153754 3.624839,0.17569 0.562013,0.558733 -1.917415,0.239796 -3.365745,1.072751 -3.633998,2.089963 -0.316914,1.201728 -0.479589,1.040002 -0.562014,-0.558733 z m 21.129608,0.211224 c -2.976475,-1.251514 -3.152827,-1.575059 -2.210067,-4.054707 1.600644,-4.210013 1.822148,-4.352088 5.037609,-3.231172 1.665918,0.580742 2.843381,1.241456 2.616584,1.468253 -0.226797,0.226797 -1.564327,-0.02562 -2.972288,-0.560925 -2.294442,-0.872345 -2.663844,-0.675197 -3.561899,1.900966 -0.92104,2.642099 -0.770639,2.954891 1.862118,3.872675 2.072149,0.722355 2.996859,0.672875 3.344263,-0.178944 0.364462,-0.893643 0.499201,-0.890362 0.559124,0.01361 0.13078,1.972922 -1.267323,2.203248 -4.675444,0.770241 z M 6.1896347,27.25 C 6.4842691,23.69007 6.6773983,23.5 10,23.5 c 3.322602,0 3.515731,0.19007 3.810365,3.75 0.293304,3.543858 0.155876,3.742514 -2.5,3.613818 C 8.9520044,30.749539 8.8618782,30.657935 10.75,30.294267 12.472877,29.962427 13,29.174361 13,26.930449 13,24.318148 12.662423,24 9.890594,24 6.9258242,24 6.8001945,24.162805 7.1897932,27.5 7.4145261,29.425 7.2115945,31 6.738834,31 6.2660735,31 6.0189338,29.3125 6.1896347,27.25 Z M 29.118468,19.966415 C 6.333583,8.8492608 6.4751231,9.0244215 16.5,4.350633 c 14.176705,-6.6094498 30.155059,0.949109 34.987089,16.550639 0.608702,1.965362 0.450462,2.283044 -0.87169,1.75 -0.888469,-0.3582 -2.351273,-0.947776 -3.250674,-1.310171 -1.225916,-0.493956 -0.951799,0.507364 1.095022,4 1.501663,2.562395 2.350037,4.638858 1.885275,4.614364 -0.464762,-0.02449 -10.016712,-4.519566 -21.226554,-9.98905 z"
             id="path6078"
             inkscape:connector-curvature="0" />
          <path
             style="fill:#3d3d3d"
             d="M 23.322495,46.033539 C 14.974867,44.640093 7.8799244,43.230057 7.5559552,42.900127 c -0.3239692,-0.32993 4.8893568,0.246481 11.5851678,1.280915 6.695812,1.034434 14.465754,2.21763 17.26654,2.629326 C 39.208448,47.222064 40.825,47.785745 40,48.062992 39.175,48.34024 31.670123,47.426986 23.322495,46.033539 Z M 13.252183,27.5 c 0.0111,-2.2 0.215885,-2.982253 0.455078,-1.738341 0.239193,1.243913 0.230112,3.043913 -0.02018,4 C 13.436788,30.717747 13.241084,29.7 13.252183,27.5 Z M 6.2320027,27 c 0,-1.925 0.2057953,-2.7125 0.4573228,-1.75 0.2515276,0.9625 0.2515276,2.5375 0,3.5 C 6.437798,29.7125 6.2320027,28.925 6.2320027,27 Z M 29,19.5 C 17.725,13.783711 8.8971759,9.0827286 9.3826132,9.0533733 9.8680504,9.024018 18.593677,13.05 28.772894,18 c 10.179216,4.95 18.683368,9 18.898115,9 0.214747,0 -1.147461,-2.404139 -3.027128,-5.342532 l -3.417576,-5.342531 5.446238,2.949808 c 2.995431,1.622394 5.233053,3.162992 4.972494,3.423552 -0.260559,0.260559 -1.382701,-0.01272 -2.493649,-0.607277 -3.352091,-1.793985 -3.457984,-1.279902 -0.704256,3.41898 1.450447,2.475 2.280706,4.475982 1.845022,4.446627 C 49.856469,29.917271 40.275,25.216289 29,19.5 Z"
             id="path6080"
             inkscape:connector-curvature="0" />
        </svg>
      </g>
    </g>
  </g>
  <g
     id="g6082"
     inkscape:groupmode="layer"
     inkscape:label="Bottom Side"
     transform="matrix(-1,0,0,-1,535.53937,1028.059)">
    <g
       id="g6084"
       inkscape:groupmode="layer"
       inkscape:label="Footer">
      <g
         id="g6086"
         inkscape:groupmode="layer"
         inkscape:label="Headline Layer">
        <rect
           id="rect6088"
           y="460.62991"
           x="159.44882"
           width="198.4252"
           style="fill:#f88028;stroke:none"
           height="88.58268" />
        <text
           id="text6090"
           style="font-weight:bold;font-size:17.71653557px;fill:#ffffff"
           x="177.16536"
           y="513.77954" />
      </g>
      <g
         id="g6092"
         inkscape:groupmode="layer"
         inkscape:label="Headline Layer">
        <rect
           id="rect6094"
           y="531.49603"
           x="159.44882"
           width="198.4252"
           style="fill:#f8a868;stroke:none"
           height="17.716536" />
        <text
           id="text6096"
           style="font-weight:normal;font-size:10.62992096px;fill:#ffffff"
           x="170.07874"
           y="545.66931" />
      </g>
    </g>
  </g>
  <g
     id="g6098"
     inkscape:groupmode="layer"
     inkscape:label="Right Side"
     transform="translate(18.216535,18.216535)">
    <path
       id="path6100"
       style="fill:#ffffff;stroke:#333333;stroke-width:1;stroke-linejoin:round;stroke-dasharray:none"
       d="m 368.50394,283.46457 24.80315,0 0,-24.80315 -24.80315,0 0,24.80315"
       inkscape:connector-curvature="0" />
    <path
       id="path6102"
       style="fill:#ffffff;stroke:#333333;stroke-width:1;stroke-linejoin:round;stroke-dasharray:none"
       d="m 368.50394,372.04724 17.71653,0 0,-56.69291 -17.71653,0 0,56.69291"
       inkscape:connector-curvature="0" />
    <path
       id="path6104"
       style="fill:#ffffff;stroke:#333333;stroke-width:1;stroke-linejoin:round;stroke-dasharray:none"
       d="m 368.50394,439.37008 14.17323,0 0,-31.88977 -14.17323,0 0,31.88977"
       inkscape:connector-curvature="0" />
  </g>
  <g
     id="g6106"
     inkscape:groupmode="layer"
     inkscape:label="Top or Bottom Layer"
     transform="translate(18.216535,18.216535)">
    <rect
       id="rect6108"
       y="159.44882"
       x="446.4567"
       width="198.4252"
       style="fill:#ffffff;stroke:none"
       height="301.18109" />
    <g
       id="g6110"
       inkscape:groupmode="layer"
       inkscape:label="Headline Layer">
      <rect
         id="rect6112"
         y="370.2756"
         x="446.4567"
         width="198.4252"
         style="fill:#ffffff;stroke:none"
         height="30.118111" />
      <text
         id="text6114"
         style="font-weight:bold;font-size:17.71653557px;text-align:center;text-anchor:middle;fill:#f88028"
         x="545.66931"
         y="394.1929">KanoOS Yappi Pi</text>
    </g>
    <g
       id="g6116"
       inkscape:groupmode="layer"
       inkscape:label="Headline Layer">
      <rect
         id="rect6118"
         y="400.39371"
         x="446.4567"
         width="198.4252"
         style="fill:#ffffff;stroke:none"
         height="30.118111" />
      <text
         id="text6120"
         style="font-weight:normal;font-size:10.62992096px;text-align:center;text-anchor:middle;fill:#f88028"
         x="545.66931"
         y="420.76773">http://world.kano.me</text>
    </g>
    <g
       id="g6122"
       inkscape:groupmode="layer"
       inkscape:label="Logo Layer"
       transform="matrix(0.60166006,0,0,0.60166006,476.5748,189.85109)">
      <svg
         sodipodi:docname="kano-logo.svg"
         inkscape:version="0.91 r13725"
         version="1.1"
         id="svg6124"
         viewBox="0 0 229.67949 228.73489"
         height="64.55407mm"
         width="64.820656mm">
        <defs
           id="defs6126" />
        <sodipodi:namedview
           fit-margin-bottom="3"
           fit-margin-right="3"
           fit-margin-left="3"
           fit-margin-top="3"
           inkscape:window-maximized="1"
           inkscape:window-y="25"
           inkscape:window-x="0"
           inkscape:window-height="1032"
           inkscape:window-width="1920"
           showgrid="false"
           inkscape:current-layer="layer1"
           inkscape:document-units="px"
           inkscape:cy="-21.739593"
           inkscape:cx="49.954903"
           inkscape:zoom="1.2825149"
           inkscape:pageshadow="2"
           inkscape:pageopacity="0"
           borderopacity="1.0"
           bordercolor="#666666"
           pagecolor="#ffffff"
           id="namedview6128" />
        <metadata
           id="metadata6130">
          <rdf:RDF>
            <cc:Work
               rdf:about="">
              <dc:format>image/svg+xml</dc:format>
              <dc:type
                 rdf:resource="http://purl.org/dc/dcmitype/StillImage" />
              <dc:title />
            </cc:Work>
          </rdf:RDF>
        </metadata>
        <g
           transform="translate(-200.94603,-219.95232)"
           id="g6132"
           inkscape:groupmode="layer"
           inkscape:label="Layer 1">
          <g
             transform="translate(21.052382,-60.818006)"
             id="g4338">
            <path
               inkscape:connector-curvature="0"
               id="path4317"
               d="m 272.73355,496.01437 c -31.41355,-7.76319 -57.24881,-32.08419 -67.26576,-63.32314 -2.14415,-6.6868 -4.78024,-12.15782 -5.85795,-12.15782 -3.08075,0 -9.08761,-22.89184 -9.07334,-34.57797 0.0185,-14.69266 3.29983,-25.06006 12.11596,-38.27363 4.15536,-6.22805 8.50646,-13.04645 9.66912,-15.15197 3.44309,-6.23534 24.46926,-20.88053 42.16302,-29.36747 22.06229,-10.58232 42.99257,-13.97588 63.99041,-10.37515 51.33263,8.80258 80.46821,49.21096 80.46821,111.60201 0,29.90398 -8.64008,60.5893 -12.60832,44.77857 l -1.61666,-6.44131 -6.53035,10.32437 c -7.55021,11.93677 -23.08548,27.13457 -34.95626,34.1969 -18.41253,10.95423 -47.17363,14.53074 -70.49808,8.76661 z"
               style="fill:#f4a567"
               sodipodi:nodetypes="ssscsssssscsss" />
            <path
               inkscape:connector-curvature="0"
               id="path4311"
               d="m 278.815,496.66098 c -13.85226,-2.30111 -30.81836,-10.0961 -43.26924,-19.87985 -11.2413,-8.83329 -25.7832,-31.0831 -30.16393,-46.15226 -1.99392,-6.85893 -4.44107,-11.9666 -5.43808,-11.35042 -2.74287,1.69517 -9.42018,-21.10749 -9.42018,-32.16937 0,-14.53064 6.06735,-32.22552 15.11316,-44.07617 4.42452,-5.79645 8.07497,-11.31153 8.11209,-12.25577 0.12968,-3.29949 27.49198,-21.58715 42.43989,-28.36485 30.76415,-13.94913 59.90001,-14.2348 89.66049,-0.87911 32.53468,14.6007 52.97404,54.05035 53.0598,102.4097 0.0319,17.95848 -5.89807,49.01137 -9.35927,49.01137 -0.81268,0 -2.4821,-2.25114 -3.7098,-5.00254 -2.0965,-4.69842 -2.6008,-4.37357 -8.2955,5.3437 -12.70408,21.67789 -37.58851,38.59568 -64.1914,43.64083 -13.93121,2.64199 -17.13024,2.6165 -34.53803,-0.27526 z m 53.50985,-18.98691 c 15.14238,-7.40849 32.68138,-25.33505 39.19577,-40.06196 l 4.67066,-10.5588 -5.41338,-5.80495 c -8.51514,-9.13105 -25.43018,-16.55382 -52.0635,-22.84689 -27.49123,-6.49577 -43.11592,-13.36635 -60.75084,-26.71373 -6.57545,-4.97676 -12.37248,-9.04867 -12.88228,-9.04867 -0.50979,0 -1.65626,3.38682 -2.54769,7.52626 -2.52876,11.74236 -7.46152,19.81511 -18.67042,30.55513 l -10.34447,9.91175 2.45986,10.97646 c 6.29159,28.07427 25.69719,49.4987 53.97569,59.59096 17.80279,6.3536 45.36242,4.79578 62.3706,-3.52556 z m -48.20131,-8.43727 c -8.41728,-3.40516 -17.17943,-15.93445 -17.17943,-24.56543 l 0,-7.92754 27.78929,0 27.78929,0 0,7.06232 c 0,19.81175 -19.82819,32.94339 -38.39915,25.43065 z m 20.02519,-14.04825 c 7.74187,-4.14333 4.9264,-6.28691 -8.25744,-6.28691 -13.04939,0 -14.81563,1.04743 -9.95783,5.90523 3.41396,3.41396 12.20521,3.59815 18.21527,0.38168 z m -54.52318,-36.09411 c -4.51365,-4.51365 -3.83629,-9.87513 1.68709,-13.3535 4.72225,-2.97387 11.72057,0.33429 12.85243,6.07546 0.70969,3.59978 -5.21892,11.03279 -8.79983,11.03279 -1.09172,0 -3.67458,-1.68964 -5.73969,-3.75475 z m 79.01722,-1.1075 c -4.58744,-6.54945 -1.10477,-14.28036 5.9579,-13.22552 6.79305,1.01454 10.60666,7.69967 7.34603,12.87728 -3.77638,5.9966 -9.24737,6.13981 -13.30393,0.34824 z"
               style="fill:#8f6446" />
            <path
               inkscape:connector-curvature="0"
               id="path4309"
               d="m 272.46186,494.88411 c -31.45622,-8.06588 -61.46434,-38.84817 -67.08658,-68.81725 -0.81013,-4.31834 -2.87881,-7.84922 -4.59873,-7.84922 -3.7639,0 -10.25298,-20.55215 -10.25298,-32.4731 0,-24.8659 18.72774,-54.33591 45.73251,-71.96483 28.93351,-18.88798 57.85989,-25.53442 85.78731,-19.71138 47.54349,9.91309 72.79716,43.90219 76.18507,102.538 1.30969,22.66707 -0.21907,34.82919 -6.40443,50.95071 l -2.515,6.55509 -3.47346,-6.58096 -3.47347,-6.58099 -4.74616,9.59284 c -7.04898,14.24726 -24.18312,30.06655 -41.19199,38.03093 -12.78133,5.98487 -18.21166,7.13539 -35.90112,7.60635 -11.46308,0.30519 -24.09051,-0.27808 -28.06097,-1.29619 z m 58.44395,-15.1742 c 15.32487,-6.956 29.70668,-20.06282 38.13181,-34.75122 8.34146,-14.5426 8.3991,-18.48069 0.37949,-25.93187 -10.05016,-9.33781 -21.03337,-13.95296 -51.52597,-21.65115 -31.89069,-8.05115 -39.01549,-11.19866 -59.49698,-26.28384 l -14.33937,-10.56137 -3.79409,13.05124 c -3.02375,10.40132 -6.81252,16.17776 -18.66041,28.45005 -9.22577,9.55625 -14.8663,17.35728 -14.8663,20.56057 0,7.31991 4.58243,3.61527 4.86417,-3.93241 0.19499,-5.22349 0.56412,-4.8252 2.28154,2.4619 7.23893,30.71471 36.47453,58.88642 66.77484,64.34484 15.55713,2.8025 36.74077,0.37573 50.25127,-5.75674 z m -48.90917,-13.23312 c -8.02144,-4.41127 -12.63197,-12.06154 -12.68525,-21.04881 l -0.0514,-8.68415 26.6314,0 26.6314,0 0,5.90444 c 0,7.73223 -5.61207,18.37119 -12.08091,22.90217 -5.93315,4.15572 -21.64253,4.66732 -28.44514,0.92635 z m 23.60756,-12.29148 6.4975,-5.71625 -15.63147,-0.0732 c -16.4042,-0.0769 -19.03925,1.90884 -10.48464,7.90072 7.19288,5.03809 12.09128,4.51095 19.61861,-2.11129 z m -55.54474,-35.09805 c -2.28157,-2.28157 -2.05717,-9.6025 0.3397,-11.08385 1.08969,-0.67347 1.48925,1.34924 0.88794,4.49487 -0.89866,4.70095 -0.17253,5.71936 4.07814,5.71936 4.30813,0 4.98112,-0.99585 4.03119,-5.96502 -0.73635,-3.85201 -0.34489,-5.16964 1.10511,-3.71964 3.59084,3.59084 1.03329,10.78104 -4.09737,11.51917 -2.58674,0.37214 -5.44186,-0.0621 -6.34471,-0.96489 z m 79.41055,0.55824 c 0,-0.48837 2.5737,-1.37992 5.71936,-1.98126 3.14563,-0.60132 5.16834,-0.20171 4.49487,0.88794 -1.18586,1.91875 -10.21423,2.88515 -10.21423,1.09332 z m -2.31578,-7.08062 c 0,-1.83534 0.94491,-3.92097 2.09981,-4.63474 1.1549,-0.71377 1.55441,0.78787 0.8878,3.33698 -1.41404,5.40731 -2.98761,6.09083 -2.98761,1.29776 z m 10.42099,-3.61034 c -0.78718,-1.27367 -0.32764,-2.31577 1.02121,-2.31577 1.34884,0 2.45245,1.0421 2.45245,2.31577 0,1.27368 -0.45955,2.31578 -1.02121,2.31578 -0.56167,0 -1.66528,-1.0421 -2.45245,-2.31578 z m -123.96484,17.36831 c 0,-1.27368 -1.01016,-0.75263 -2.24484,1.15788 -1.23468,1.91052 -2.24484,4.51576 -2.24484,5.78944 0,1.27368 1.01016,0.75263 2.24484,-1.15789 1.23468,-1.91051 2.24484,-4.51576 2.24484,-5.78943 z"
               style="fill:#5c5c5e" />
            <path
               inkscape:connector-curvature="0"
               id="path4307"
               d="m 272.46186,494.88411 c -31.45622,-8.06588 -61.46434,-38.84817 -67.08658,-68.81725 -0.80987,-4.31709 -2.78426,-7.84922 -4.38749,-7.84922 -4.18212,0 -9.18864,-19.76914 -8.87458,-35.04289 0.3112,-15.13433 6.19447,-29.94717 16.6023,-41.80102 4.00485,-4.56131 7.28158,-9.38294 7.28158,-10.71476 0,-3.7293 32.86046,-24.84543 47.92802,-30.79852 11.06243,-4.3707 17.9463,-5.32568 38.9135,-5.39846 21.7336,-0.0755 27.17347,0.6888 37.05238,5.20535 27.39489,12.52465 41.22853,28.59147 51.40434,59.70259 7.91629,24.20299 8.8731,62.41206 2.05352,82.00545 -4.31128,12.3868 -4.49152,12.56177 -6.55966,6.36838 -2.83095,-8.47777 -4.41584,-7.98051 -9.46483,2.96958 -6.28927,13.64 -23.80886,29.85751 -40.90041,37.86061 -12.78133,5.98487 -18.21166,7.13539 -35.90112,7.60635 -11.46308,0.30519 -24.09051,-0.27808 -28.06097,-1.29619 z m 58.44395,-15.1742 c 15.32487,-6.956 29.70668,-20.06282 38.13181,-34.75122 8.34146,-14.5426 8.3991,-18.48069 0.37949,-25.93187 -10.05016,-9.33781 -21.03337,-13.95296 -51.52597,-21.65115 -31.89069,-8.05115 -39.01549,-11.19866 -59.49698,-26.28384 l -14.33937,-10.56137 -3.79409,13.05124 c -3.02375,10.40132 -6.81252,16.17776 -18.66041,28.45005 -9.22577,9.55625 -14.8663,17.35728 -14.8663,20.56057 0,7.31991 4.58243,3.61527 4.86417,-3.93241 0.19499,-5.22349 0.56412,-4.8252 2.28154,2.4619 7.23893,30.71471 36.47453,58.88642 66.77484,64.34484 15.55713,2.8025 36.74077,0.37573 50.25127,-5.75674 z m -48.90917,-13.23312 c -8.02144,-4.41127 -12.63197,-12.06154 -12.68525,-21.04881 l -0.0514,-8.68415 26.6314,0 26.6314,0 0,5.90444 c 0,7.73223 -5.61207,18.37119 -12.08091,22.90217 -5.93315,4.15572 -21.64253,4.66732 -28.44514,0.92635 z m 23.60756,-12.29148 6.4975,-5.71625 -15.63147,-0.0732 c -16.4042,-0.0769 -19.03925,1.90884 -10.48464,7.90072 7.19288,5.03809 12.09128,4.51095 19.61861,-2.11129 z m -55.54474,-35.09805 c -2.28157,-2.28157 -2.05717,-9.6025 0.3397,-11.08385 1.08969,-0.67347 1.48925,1.34924 0.88794,4.49487 -0.89866,4.70095 -0.17253,5.71936 4.07814,5.71936 4.30813,0 4.98112,-0.99585 4.03119,-5.96502 -0.73635,-3.85201 -0.34489,-5.16964 1.10511,-3.71964 3.59084,3.59084 1.03329,10.78104 -4.09737,11.51917 -2.58674,0.37214 -5.44186,-0.0621 -6.34471,-0.96489 z m 79.41055,0.55824 c 0,-0.48837 2.5737,-1.37992 5.71936,-1.98126 3.14563,-0.60132 5.16834,-0.20171 4.49487,0.88794 -1.18586,1.91875 -10.21423,2.88515 -10.21423,1.09332 z m -2.31578,-7.08062 c 0,-1.83534 0.94491,-3.92097 2.09981,-4.63474 1.1549,-0.71377 1.55441,0.78787 0.8878,3.33698 -1.41404,5.40731 -2.98761,6.09083 -2.98761,1.29776 z m 10.42099,-3.61034 c -0.78718,-1.27367 -0.32764,-2.31577 1.02121,-2.31577 1.34884,0 2.45245,1.0421 2.45245,2.31577 0,1.27368 -0.45955,2.31578 -1.02121,2.31578 -0.56167,0 -1.66528,-1.0421 -2.45245,-2.31578 z m -123.96484,17.36831 c 0,-1.27368 -1.01016,-0.75263 -2.24484,1.15788 -1.23468,1.91052 -2.24484,4.51576 -2.24484,5.78944 0,1.27368 1.01016,0.75263 2.24484,-1.15789 1.23468,-1.91051 2.24484,-4.51576 2.24484,-5.78943 z m 171.58734,-38.11482 c -4.60545,-36.72917 -18.38025,-61.03856 -41.96993,-74.06736 -14.56351,-8.04356 -15.51992,-8.23806 -40.50928,-8.23806 -24.9378,0 -26.0356,0.22185 -42.84182,8.65363 -9.48652,4.75949 -19.73289,10.6011 -22.7697,12.98132 l -5.52153,4.32767 10.82942,9.98222 c 28.79067,26.53832 42.91022,34.17707 80.8919,43.76296 30.39715,7.67169 43.27019,13.12189 53.63659,22.70871 6.4797,5.99241 7.06659,6.13212 8.71917,2.07586 0.97452,-2.39196 0.76536,-12.3761 -0.46482,-22.18695 z m -155.3854,-21.78149 4.70105,-13.92051 -5.04246,-5.36743 -5.04246,-5.36746 -5.25667,4.93837 c -9.0691,8.51998 -14.75356,23.75613 -14.75356,39.54422 l 0,14.40205 10.34653,-10.15436 c 7.30562,-7.16992 11.72823,-14.24574 15.04757,-24.07488 z"
               style="fill:#7a533a" />
            <path
               inkscape:connector-curvature="0"
               id="path4305"
               d="m 381.90293,437.91214 c -3.64063,-8.09991 -8.85112,-16.80891 -11.57887,-19.35332 -8.53375,-7.96019 -27.1745,-15.69863 -53.26123,-22.11054 -28.06799,-6.89893 -37.7797,-11.2064 -58.72112,-26.04477 l -14.39184,-10.19756 -3.87195,13.37436 c -3.26395,11.27423 -6.39085,15.82894 -19.91309,29.00586 -8.82266,8.59731 -17.4026,15.63147 -19.0666,15.63147 -4.27726,0 -9.30258,-19.59944 -8.98502,-35.04289 0.3112,-15.13433 6.19447,-29.94717 16.6023,-41.80102 4.00485,-4.56131 7.28158,-9.38294 7.28158,-10.71476 0,-3.7293 32.86046,-24.84543 47.92802,-30.79852 11.06243,-4.3707 17.9463,-5.32568 38.9135,-5.39846 27.34104,-0.095 37.51556,2.82436 57.19086,16.40899 31.81209,21.96433 48.74296,94.28123 31.52574,134.65591 l -3.03297,7.11237 -6.61931,-14.72712 z m 3.29479,-49.70411 c -4.60545,-36.72917 -18.38025,-61.03856 -41.96993,-74.06736 -14.56351,-8.04356 -15.51992,-8.23806 -40.50928,-8.23806 -24.9378,0 -26.0356,0.22185 -42.84182,8.65363 -9.48652,4.75949 -19.73289,10.6011 -22.7697,12.98132 l -5.52153,4.32767 10.82942,9.98222 c 28.79067,26.53832 42.91022,34.17707 80.8919,43.76296 30.39715,7.67169 43.27019,13.12189 53.63659,22.70871 6.4797,5.99241 7.06659,6.13212 8.71917,2.07586 0.97452,-2.39196 0.76536,-12.3761 -0.46482,-22.18695 z m -155.3854,-21.78149 4.70105,-13.92051 -5.04246,-5.36743 -5.04246,-5.36746 -5.25667,4.93837 c -9.0691,8.51998 -14.75356,23.75613 -14.75356,39.54422 l 0,14.40205 10.34653,-10.15436 c 7.30562,-7.16992 11.72823,-14.24574 15.04757,-24.07488 z"
               style="fill:#333133" />
          </g>
        </g>
      </svg>
    </g>
  </g>
  <g
     id="g6140"
     inkscape:groupmode="layer"
     inkscape:label="Top or Bottom Layer"
     transform="translate(18.216535,18.216535)">
    <rect
       id="rect6142"
       y="159.44882"
       x="159.44882"
       width="198.4252"
       style="fill:#ffffff;stroke:none"
       height="301.18109" />
    <g
       id="g6144"
       inkscape:groupmode="layer"
       inkscape:label="Headline Layer">
      <rect
         id="rect6146"
         y="370.2756"
         x="159.44882"
         width="198.4252"
         style="fill:#ffffff;stroke:none"
         height="30.118111" />
      <text
         id="text6148"
         style="font-weight:bold;font-size:17.71653557px;text-align:center;text-anchor:middle;fill:#f88028"
         x="258.66141"
         y="394.1929">Yappi Case</text>
    </g>
    <g
       id="g6150"
       inkscape:groupmode="layer"
       inkscape:label="Headline Layer">
      <rect
         id="rect6152"
         y="400.39371"
         x="159.44882"
         width="198.4252"
         style="fill:#ffffff;stroke:none"
         height="30.118111" />
      <text
         id="text6154"
         style="font-weight:normal;font-size:10.62992096px;text-align:center;text-anchor:middle;fill:#f88028"
         x="258.66141"
         y="420.76773">https://github.com/Avedo/yappi</text>
    </g>
    <g
       id="g6156"
       inkscape:groupmode="layer"
       inkscape:label="Logo Layer"
       transform="matrix(2.5590551,0,0,2.5590551,189.56693,189.56693)">
      <svg
         sodipodi:docname="kano_5.svg"
         viewBox="0 0 54 54"
         height="54"
         width="54"
         inkscape:version="0.91 r13725"
         version="1.1"
         id="svg6158">
        <metadata
           id="metadata6160">
          <rdf:RDF>
            <cc:Work
               rdf:about="">
              <dc:format>image/svg+xml</dc:format>
              <dc:type
                 rdf:resource="http://purl.org/dc/dcmitype/StillImage" />
              <dc:title />
            </cc:Work>
          </rdf:RDF>
        </metadata>
        <defs
           id="defs6162" />
        <sodipodi:namedview
           inkscape:current-layer="svg2"
           inkscape:window-maximized="1"
           inkscape:window-y="25"
           inkscape:window-x="0"
           inkscape:cy="26.885593"
           inkscape:cx="-9.8389829"
           inkscape:zoom="4.3703704"
           showgrid="false"
           id="namedview6164"
           inkscape:window-height="1032"
           inkscape:window-width="1920"
           inkscape:pageshadow="2"
           inkscape:pageopacity="0"
           guidetolerance="10"
           gridtolerance="10"
           objecttolerance="10"
           borderopacity="1"
           bordercolor="#666666"
           pagecolor="#ffffff" />
        <ellipse
           ry="23.855614"
           rx="23.626799"
           cy="28.144068"
           cx="27.228815"
           id="ellipse6166"
           style="fill:#ffffff;fill-opacity:1;stroke:none;stroke-width:7.3396225;stroke-linecap:butt;stroke-linejoin:round;stroke-miterlimit:4;stroke-dasharray:none;stroke-dashoffset:0;stroke-opacity:1" />
        <path
           style="fill:#f8ed96"
           d="M 18,51.926645 C 13.045658,50.372406 3.7176289,40.734358 2.2109028,35.612794 -0.83862701,25.247034 1.3033252,16.855494 8.9609028,9.1682762 15.324891,2.7796551 20.754814,0.70573605 29.233106,1.4254575 45.843785,2.8355365 56.49428,18.584341 51.935769,34.995708 50.225949,41.15133 41.372865,50.256026 35.38398,52.017912 30.44083,53.47215 22.798608,53.432028 18,51.926645 Z M 11,31.728814 c 0,-0.833333 -0.888889,-1.5 -1.9999996,-1.5 -1.9922427,0 -2.6011242,1.065542 -1.3333333,2.333333 C 8.8845962,33.780076 11,33.251225 11,31.728814 Z m 7,0 c 0,-0.833333 -0.888889,-1.5 -2,-1.5 -1.111111,0 -2,0.666667 -2,1.5 0,0.833333 0.888889,1.5 2,1.5 1.111111,0 2,-0.666667 2,-1.5 z m 7,0 c 0,-0.833333 -0.888889,-1.5 -2,-1.5 -1.111111,0 -2,0.666667 -2,1.5 0,0.833333 0.888889,1.5 2,1.5 1.111111,0 2,-0.666667 2,-1.5 z m 6.750467,-0.25 c 0.261315,-0.784826 -0.545161,-1.25 -2.167134,-1.25 -2.523849,0 -3.288268,0.961731 -1.882097,2.367903 1.028775,1.028775 3.567875,0.327785 4.049231,-1.117903 z M 38,31.728814 c 0,-0.833333 -0.888889,-1.5 -2,-1.5 -1.992243,0 -2.601124,1.065542 -1.333333,2.333333 C 35.884596,33.780076 38,33.251225 38,31.728814 Z m 7,0 c 0,-0.833333 -0.888889,-1.5 -2,-1.5 -1.111111,0 -2,0.666667 -2,1.5 0,0.833333 0.888889,1.5 2,1.5 1.111111,0 2,-0.666667 2,-1.5 z M 10.553851,20.141682 c 1.030521,-1.667419 -1.2872091,-3.57951 -2.6667183,-2.2 -1.1539247,1.153924 -0.4317213,3.287132 1.1128677,3.287132 0.4850813,0 1.1843136,-0.48921 1.5538506,-1.087132 z"
           id="path6168"
           inkscape:connector-curvature="0" />
        <path
           style="fill:#f7e96a"
           d="M 15.168383,49.625433 C 6.476603,45.294136 2.0000004,37.588077 2.0000004,26.957277 2.0000004,15.91109 9.2664084,5.5742493 19.355971,2.267512 24.227352,0.67097348 33.396592,1.3251393 38.149661,3.6083198 50.233949,9.4131198 56.080048,24.00617 51.016959,35.727706 46.121629,47.060864 38.599804,52.228814 27,52.228814 c -5.113274,0 -7.788625,-0.588673 -11.831617,-2.603381 z M 11,31.728814 c 0,-0.833333 -0.888889,-1.5 -1.9999996,-1.5 -1.9922427,0 -2.6011242,1.065542 -1.3333333,2.333333 C 8.8845962,33.780076 11,33.251225 11,31.728814 Z m 7,0 c 0,-0.833333 -0.888889,-1.5 -2,-1.5 -1.111111,0 -2,0.666667 -2,1.5 0,0.833333 0.888889,1.5 2,1.5 1.111111,0 2,-0.666667 2,-1.5 z m 7,0 c 0,-0.833333 -0.888889,-1.5 -2,-1.5 -1.111111,0 -2,0.666667 -2,1.5 0,0.833333 0.888889,1.5 2,1.5 1.111111,0 2,-0.666667 2,-1.5 z m 6.750467,-0.25 c 0.261315,-0.784826 -0.545161,-1.25 -2.167134,-1.25 -2.523849,0 -3.288268,0.961731 -1.882097,2.367903 1.028775,1.028775 3.567875,0.327785 4.049231,-1.117903 z M 38,31.728814 c 0,-0.833333 -0.888889,-1.5 -2,-1.5 -1.992243,0 -2.601124,1.065542 -1.333333,2.333333 C 35.884596,33.780076 38,33.251225 38,31.728814 Z m 7,0 c 0,-0.833333 -0.888889,-1.5 -2,-1.5 -1.111111,0 -2,0.666667 -2,1.5 0,0.833333 0.888889,1.5 2,1.5 1.111111,0 2,-0.666667 2,-1.5 z M 10.553851,20.141682 c 1.030521,-1.667419 -1.2872091,-3.57951 -2.6667183,-2.2 -1.1539247,1.153924 -0.4317213,3.287132 1.1128677,3.287132 0.4850813,0 1.1843136,-0.48921 1.5538506,-1.087132 z"
           id="path6170"
           inkscape:connector-curvature="0" />
        <path
           style="fill:#f6e65d"
           d="M 18.670137,50.605615 C 11.972944,48.548014 5.6145368,42.037276 3.5662214,35.13985 1.6073423,28.543588 1.6039847,25.925346 3.5460187,19.385808 5.4612137,12.936647 13.590276,4.1290844 19.355971,2.2562639 24.237779,0.67054852 33.407152,1.3302117 38.149661,3.6083198 42.813902,5.8488315 48.37251,11.403946 50.628338,16.079153 c 1.895146,3.927694 3.269107,16.822347 1.688372,15.845398 -0.513508,-0.317365 -1.471805,1.435071 -2.129549,3.894302 -1.680509,6.283235 -8.384019,12.797004 -15.276125,14.84374 -6.39801,1.900005 -9.911324,1.887679 -16.240899,-0.05698 z M 11,31.728814 c 0,-0.833333 -0.888889,-1.5 -1.9999996,-1.5 -1.9922427,0 -2.6011242,1.065542 -1.3333333,2.333333 C 8.8845962,33.780076 11,33.251225 11,31.728814 Z m 7,0 c 0,-0.833333 -0.888889,-1.5 -2,-1.5 -1.111111,0 -2,0.666667 -2,1.5 0,0.833333 0.888889,1.5 2,1.5 1.111111,0 2,-0.666667 2,-1.5 z m 7,0 c 0,-0.833333 -0.888889,-1.5 -2,-1.5 -1.111111,0 -2,0.666667 -2,1.5 0,0.833333 0.888889,1.5 2,1.5 1.111111,0 2,-0.666667 2,-1.5 z m 6.750467,-0.25 c 0.261315,-0.784826 -0.545161,-1.25 -2.167134,-1.25 -2.523849,0 -3.288268,0.961731 -1.882097,2.367903 1.028775,1.028775 3.567875,0.327785 4.049231,-1.117903 z M 38,31.728814 c 0,-0.833333 -0.888889,-1.5 -2,-1.5 -1.992243,0 -2.601124,1.065542 -1.333333,2.333333 C 35.884596,33.780076 38,33.251225 38,31.728814 Z m 7,0 c 0,-0.833333 -0.888889,-1.5 -2,-1.5 -1.111111,0 -2,0.666667 -2,1.5 0,0.833333 0.888889,1.5 2,1.5 1.111111,0 2,-0.666667 2,-1.5 z M 10.553851,20.141682 c 1.030521,-1.667419 -1.2872091,-3.57951 -2.6667183,-2.2 -1.1539247,1.153924 -0.4317213,3.287132 1.1128677,3.287132 0.4850813,0 1.1843136,-0.48921 1.5538506,-1.087132 z"
           id="path6172"
           inkscape:connector-curvature="0" />
        <path
           style="fill:#9f9f9e"
           d="M 21.235594,50.271312 C 13.169616,48.305 5.0000004,38.690429 5.0000004,31.164139 c 0,-2.346107 0.457356,-2.72334 3.75,-3.093049 C 11.966804,27.709897 32.290371,27.732347 44.25,28.1103 c 4.348069,0.137411 4.727954,1.505058 2.151675,7.746386 C 41.854111,46.87368 31.53766,52.782735 21.235594,50.271312 Z M 11,31.728814 c 0,-0.833333 -0.888889,-1.5 -1.9999996,-1.5 -1.9922427,0 -2.6011242,1.065542 -1.3333333,2.333333 C 8.8845962,33.780076 11,33.251225 11,31.728814 Z m 7,0 c 0,-0.833333 -0.888889,-1.5 -2,-1.5 -1.111111,0 -2,0.666667 -2,1.5 0,0.833333 0.888889,1.5 2,1.5 1.111111,0 2,-0.666667 2,-1.5 z m 7,0 c 0,-0.833333 -0.888889,-1.5 -2,-1.5 -1.111111,0 -2,0.666667 -2,1.5 0,0.833333 0.888889,1.5 2,1.5 1.111111,0 2,-0.666667 2,-1.5 z m 6.750467,-0.25 c 0.261315,-0.784826 -0.545161,-1.25 -2.167134,-1.25 -2.523849,0 -3.288268,0.961731 -1.882097,2.367903 1.028775,1.028775 3.567875,0.327785 4.049231,-1.117903 z M 38,31.728814 c 0,-0.833333 -0.888889,-1.5 -2,-1.5 -1.992243,0 -2.601124,1.065542 -1.333333,2.333333 C 35.884596,33.780076 38,33.251225 38,31.728814 Z m 7,0 c 0,-0.833333 -0.888889,-1.5 -2,-1.5 -1.111111,0 -2,0.666667 -2,1.5 0,0.833333 0.888889,1.5 2,1.5 1.111111,0 2,-0.666667 2,-1.5 z m 5.921726,-2.291528 c -1.007165,-1.76901 -4.263878,-4.096304 -9,-6.43153 C 33.877881,19.039602 14.5,6.1461697 14.5,4.7602038 14.5,3.3098855 21.241726,1.3848216 26.600777,1.3048915 41.550169,1.0819218 53.926827,13.665632 52.826264,27.969111 L 52.5,32.209407 50.921726,29.437286 Z M 5.6666671,22.562147 C 4.5801199,21.4756 4.9064919,17.722322 6.2000004,16.428814 c 3.0137073,-3.013707 7.4742106,-0.02241 6.3926146,4.287014 -0.486728,1.939278 -1.273212,2.512986 -3.445,2.512986 -1.5478547,0 -3.1142813,-0.3 -3.4809479,-0.666667 z m 4.8871839,-2.420465 c 1.030521,-1.667419 -1.2872091,-3.57951 -2.6667183,-2.2 -1.1539247,1.153924 -0.4317213,3.287132 1.1128677,3.287132 0.4850813,0 1.1843136,-0.48921 1.5538506,-1.087132 z"
           id="path6174"
           inkscape:connector-curvature="0" />
        <path
           style="fill:#aca250"
           d="M 21.235594,50.271312 C 13.169616,48.305 5.0000004,38.690429 5.0000004,31.164139 c 0,-2.346107 0.457356,-2.72334 3.75,-3.093049 C 11.966804,27.709897 32.290371,27.732347 44.25,28.1103 c 4.348069,0.137411 4.727954,1.505058 2.151675,7.746386 C 41.854111,46.87368 31.53766,52.782735 21.235594,50.271312 Z M 11.811841,31.96733 c 0.247988,-1.287698 -0.332486,-1.738516 -2.2385164,-1.738516 -2.4446959,0 -3.443369,1.796622 -1.8720879,3.367903 1.2041182,1.204118 3.7600313,0.190989 4.1106043,-1.629387 z m 6.011483,-0.07138 c 0.234288,-1.208042 -0.385315,-1.667136 -2.25,-1.667136 -2.803544,0 -3.250198,0.923126 -1.360824,2.8125 1.536751,1.536751 3.192514,1.011536 3.610824,-1.145366 z m 7,0 c 0.234288,-1.208042 -0.385315,-1.667136 -2.25,-1.667136 -2.803544,0 -3.250198,0.923126 -1.360824,2.8125 1.536751,1.536751 3.192514,1.011536 3.610824,-1.145366 z m 6.988517,0.07138 c 0.247988,-1.287698 -0.332486,-1.738516 -2.238517,-1.738516 -2.444696,0 -3.443369,1.796622 -1.872088,3.367903 1.204118,1.204118 3.760032,0.190989 4.110605,-1.629387 z m 7,0 c 0.247988,-1.287698 -0.332486,-1.738516 -2.238517,-1.738516 -2.444696,0 -3.443369,1.796622 -1.872088,3.367903 1.204118,1.204118 3.760032,0.190989 4.110605,-1.629387 z M 44.8,33.028814 c 1.864121,-1.864121 1.429605,-2.8 -1.3,-2.8 -2.353015,0 -3.351407,1.815259 -1.833333,3.333333 0.963974,0.963975 1.773882,0.826118 3.133333,-0.533333 z m 5.491926,-4.70416 C 49.682319,27.348517 46.554751,25.317523 43.341775,23.811333 35.335319,20.058039 14.83473,6.2246249 15.283549,4.8781678 15.820182,3.2682673 19.668078,2.4381206 27,2.3504556 c 7.83059,-0.093627 13.116414,2.0380229 18.307303,7.3829105 5.179486,5.3331479 9.634665,18.1772119 6.892848,19.8717479 -0.439916,0.271883 -1.298618,-0.304324 -1.908225,-1.28046 z M 45.5,20.228814 c -0.339919,-0.55 -1.293034,-1 -2.118034,-1 -0.825,0 -1.221885,0.45 -0.881966,1 0.339919,0.55 1.293034,1 2.118034,1 0.825,0 1.221885,-0.45 0.881966,-1 z M 5.6666671,22.562147 C 4.5801199,21.4756 4.9064919,17.722322 6.2000004,16.428814 c 3.0137073,-3.013707 7.4742106,-0.02241 6.3926146,4.287014 -0.486728,1.939278 -1.273212,2.512986 -3.445,2.512986 -1.5478547,0 -3.1142813,-0.3 -3.4809479,-0.666667 z M 11,19.228814 c 0,-1.333333 -0.666667,-2 -1.9999996,-2 -1.3333333,0 -2,0.666667 -2,2 0,1.333333 0.6666667,2 2,2 1.3333326,0 1.9999996,-0.666667 1.9999996,-2 z"
           id="path6176"
           inkscape:connector-curvature="0" />
        <path
           style="fill:#4b4b4a"
           d="M 18.00714,48.635831 C 16.086067,47.802747 13.439012,46.13286 12.124795,44.924973 9.2872142,42.316972 5.0235821,33.660207 5.0097693,30.478814 l -0.00977,-2.25 20.9999997,0 21,0 -0.02196,2.75 C 46.947479,34.805321 43.80094,41.214252 40.3761,44.425766 34.425779,50.005453 25.178744,51.745839 18.007141,48.635831 Z M 11.811841,31.96733 c 0.247988,-1.287698 -0.332486,-1.738516 -2.2385164,-1.738516 -2.4446959,0 -3.443369,1.796622 -1.8720879,3.367903 1.2041182,1.204118 3.7600313,0.190989 4.1106043,-1.629387 z m 6.011483,-0.07138 c 0.234288,-1.208042 -0.385315,-1.667136 -2.25,-1.667136 -2.803544,0 -3.250198,0.923126 -1.360824,2.8125 1.536751,1.536751 3.192514,1.011536 3.610824,-1.145366 z m 7,0 c 0.234288,-1.208042 -0.385315,-1.667136 -2.25,-1.667136 -2.803544,0 -3.250198,0.923126 -1.360824,2.8125 1.536751,1.536751 3.192514,1.011536 3.610824,-1.145366 z m 6.988517,0.07138 c 0.247988,-1.287698 -0.332486,-1.738516 -2.238517,-1.738516 -2.444696,0 -3.443369,1.796622 -1.872088,3.367903 1.204118,1.204118 3.760032,0.190989 4.110605,-1.629387 z m 7,0 c 0.247988,-1.287698 -0.332486,-1.738516 -2.238517,-1.738516 -2.444696,0 -3.443369,1.796622 -1.872088,3.367903 1.204118,1.204118 3.760032,0.190989 4.110605,-1.629387 z M 44.8,33.028814 c 1.864121,-1.864121 1.429605,-2.8 -1.3,-2.8 -2.353015,0 -3.351407,1.815259 -1.833333,3.333333 0.963974,0.963975 1.773882,0.826118 3.133333,-0.533333 z M 50.70352,24.5056 c -1.065015,-1.063915 -3.268109,-1.776786 -5.491072,-1.776786 -3.282714,0 -3.748293,-0.310215 -4.022109,-2.679931 C 40.92098,17.717739 40.234903,17.230458 35.918819,16.304824 26.876815,14.365661 13.634988,6.1938257 15.886434,3.9423797 17.819791,2.0090226 31.635406,1.8178582 36.453226,3.6578003 42.563969,5.9915142 48.471627,12.200678 50.992988,18.939618 53.367535,25.286165 53.274557,27.073981 50.70352,24.5056 Z M 45.5,20.228814 c -0.339919,-0.55 -1.293034,-1 -2.118034,-1 -0.825,0 -1.221885,0.45 -0.881966,1 0.339919,0.55 1.293034,1 2.118034,1 0.825,0 1.221885,-0.45 0.881966,-1 z M 6.0398267,21.776802 c -2.382525,-2.870767 0.9043346,-7.274118 4.4221063,-5.924222 3.638329,1.396158 2.453108,7.376234 -1.4619326,7.376234 -0.9653108,0 -2.297389,-0.653406 -2.9601737,-1.452012 z M 11,19.228814 c 0,-1.333333 -0.666667,-2 -1.9999996,-2 -1.3333333,0 -2,0.666667 -2,2 0,1.333333 0.6666667,2 2,2 1.3333326,0 1.9999996,-0.666667 1.9999996,-2 z"
           id="path6178"
           inkscape:connector-curvature="0" />
        <path
           style="fill:#2f2f2d"
           d="m 49.494452,23.222683 c -0.998538,-1.103372 -2.04042,-1.781234 -2.315293,-1.506361 -0.274873,0.274873 -1.128149,-0.397368 -1.896168,-1.493869 -1.804924,-2.576891 -3.667518,-2.572073 -2.992881,0.0077 0.287855,1.100759 0.115339,1.749201 -0.383369,1.440983 C 41.408034,21.362959 41,20.254682 41,19.208341 41,17.807091 39.880358,17.01998 36.75,16.220582 30.043871,14.508041 26.879316,13.127178 21.25,9.4571091 16.321422,6.2438913 14.689326,4.2288136 17.015384,4.2288136 c 0.558462,0 3.370962,1.5352644 6.25,3.4116986 2.879039,1.8764343 9.124446,4.5763598 13.878682,5.9998328 C 45.955756,16.278668 52,20.343041 52,23.630024 c 0,2.066818 -0.312433,2.016024 -2.505548,-0.407341 z"
           id="path6180"
           inkscape:connector-curvature="0" />
      </svg>
    </g>
  </g>
  <g
     id="g6182"
     inkscape:groupmode="layer"
     inkscape:label="Inner Edges"
     transform="translate(18.216535,18.216535)">
    <path
       id="path6184"
       style="fill:none;stroke:#333333;stroke-width:1;stroke-linejoin:round;stroke-dasharray:5, 3, 2"
       d="m 159.44882,460.62992 485.43307,0 0,-301.1811 -485.43307,0 0,301.1811"
       inkscape:connector-curvature="0" />
    <path
       id="path6186"
       inkscape:label="A Name"
       style="fill:none;stroke:#333333;stroke-width:1;stroke-dasharray:none"
       d="m 446.45669,460.62992 35.43307,0"
       inkscape:connector-curvature="0" />
    <path
       id="path6188"
       inkscape:label="A Name"
       style="fill:none;stroke:#333333;stroke-width:1;stroke-dasharray:none"
       d="m 644.88189,460.62992 -35.43307,0"
       inkscape:connector-curvature="0" />
    <path
       id="path6190"
       inkscape:label="A Name"
       style="fill:none;stroke:#333333;stroke-width:1;stroke-dasharray:none"
       d="m 644.88189,460.62992 0,-35.43307"
       inkscape:connector-curvature="0" />
    <path
       id="path6192"
       inkscape:label="A Name"
       style="fill:none;stroke:#333333;stroke-width:1;stroke-dasharray:none"
       d="m 644.88189,159.44882 0,35.43307"
       inkscape:connector-curvature="0" />
    <path
       id="path6194"
       inkscape:label="A Name"
       style="fill:none;stroke:#333333;stroke-width:1;stroke-dasharray:none"
       d="m 644.88189,159.44882 -35.43307,0"
       inkscape:connector-curvature="0" />
    <path
       id="path6196"
       inkscape:label="A Name"
       style="fill:none;stroke:#333333;stroke-width:1;stroke-dasharray:none"
       d="m 446.45669,159.44882 35.43307,0"
       inkscape:connector-curvature="0" />
    <path
       id="path6198"
       inkscape:label="A Name"
       style="fill:none;stroke:#333333;stroke-width:1;stroke-dasharray:5, 3, 2"
       d="m 70.866142,460.62992 88.582678,0"
       inkscape:connector-curvature="0" />
    <path
       id="path6200"
       inkscape:label="A Name"
       style="fill:none;stroke:#333333;stroke-width:1;stroke-dasharray:5, 3, 2"
       d="m 159.44882,460.62992 0,88.58268"
       inkscape:connector-curvature="0" />
    <path
       id="path6202"
       inkscape:label="A Name"
       style="fill:none;stroke:#333333;stroke-width:1;stroke-dasharray:5, 3, 2"
       d="m 357.87402,460.62992 0,88.58268"
       inkscape:connector-curvature="0" />
    <path
       id="path6204"
       inkscape:label="A Name"
       style="fill:none;stroke:#333333;stroke-width:1;stroke-dasharray:5, 3, 2"
       d="m 357.87402,159.44882 0,-88.582678"
       inkscape:connector-curvature="0" />
    <path
       id="path6206"
       inkscape:label="A Name"
       style="fill:none;stroke:#333333;stroke-width:1;stroke-dasharray:5, 3, 2"
       d="m 70.866142,159.44882 88.582678,0"
       inkscape:connector-curvature="0" />
    <path
       id="path6208"
       inkscape:label="A Name"
       style="fill:none;stroke:#333333;stroke-width:1;stroke-dasharray:5, 3, 2"
       d="m 159.44882,70.866142 0,88.582678"
       inkscape:connector-curvature="0" />
    <path
       id="path6210"
       inkscape:label="A Name"
       style="fill:none;stroke:#333333;stroke-width:1;stroke-dasharray:5, 3, 2"
       d="m 159.44882,460.62992 -44.29134,44.29134"
       inkscape:connector-curvature="0" />
    <path
       id="path6212"
       inkscape:label="A Name"
       style="fill:none;stroke:#333333;stroke-width:1;stroke-dasharray:5, 3, 2"
       d="m 357.87402,460.62992 44.29133,44.29134"
       inkscape:connector-curvature="0" />
    <path
       id="path6214"
       inkscape:label="A Name"
       style="fill:none;stroke:#333333;stroke-width:1;stroke-dasharray:5, 3, 2"
       d="m 357.87402,159.44882 44.29133,-44.29134"
       inkscape:connector-curvature="0" />
    <path
       id="path6216"
       inkscape:label="A Name"
       style="fill:none;stroke:#333333;stroke-width:1;stroke-dasharray:5, 3, 2"
       d="M 159.44882,159.44882 115.15748,115.15748"
       inkscape:connector-curvature="0" />
    <path
       id="path6218"
       inkscape:label="A Name"
       style="fill:none;stroke:#333333;stroke-width:1;stroke-dasharray:5, 3, 2"
       d="m 357.87402,159.44882 0,301.1811"
       inkscape:connector-curvature="0" />
    <path
       id="path6220"
       inkscape:label="A Name"
       style="fill:none;stroke:#333333;stroke-width:1;stroke-dasharray:5, 3, 2"
       d="m 446.45669,159.44882 0,301.1811"
       inkscape:connector-curvature="0" />
    <path
       id="path6222"
       inkscape:label="A Name"
       style="fill:none;stroke:#333333;stroke-width:1;stroke-dasharray:none"
       d="m 177.16535,70.866142 162.99213,0"
       inkscape:connector-curvature="0" />
    <path
       id="path6224"
       inkscape:label="A Name"
       style="fill:none;stroke:#333333;stroke-width:1;stroke-dasharray:none"
       d="m 70.866142,177.16535 0,265.74804"
       inkscape:connector-curvature="0" />
    <path
       id="path6226"
       inkscape:label="A Name"
       style="fill:none;stroke:#333333;stroke-width:1;stroke-dasharray:none"
       d="m 177.16535,549.2126 162.99213,0"
       inkscape:connector-curvature="0" />
  </g>
</svg>
